<svg width="48" height="48" viewBox="0 0 48 48" fill="none" xmlns="http://www.w3.org/2000/svg">
<mask id="path-1-inside-1_845_4636" fill="white">
<path d="M18.9654 31.9916C18.4422 32.0478 17.9114 32.0775 17.3728 32.0775C13.3319 32.0775 9.67861 30.4409 7.02981 27.7932C4.38211 25.1444 2.74547 21.4911 2.74547 17.4502C2.74547 13.4093 4.38211 9.756 7.02981 7.1072C9.67861 4.45951 13.3319 2.82287 17.3728 2.82287C20.7992 2.82287 23.9447 3.99913 26.4382 5.97059C28.9317 7.94204 30.7666 10.7076 31.5629 13.8839L32.8449 13.5623C31.9759 10.0963 29.9747 7.08187 27.2587 4.93309C24.5427 2.78432 21.1042 1.50012 17.3728 1.50122C12.9706 1.50122 8.97924 3.28765 6.09475 6.17214C3.20915 9.05663 1.42273 13.048 1.42383 17.4502C1.42383 21.8524 3.21025 25.8437 6.09475 28.7282C8.97924 31.6138 12.9706 33.4002 17.3728 33.4002C17.9587 33.4002 18.538 33.3683 19.1075 33.3066L18.9654 31.9916Z"/>
<path d="M18.4589 45.8392V36.9633C18.4589 34.9334 19.2882 33.0908 20.6286 31.7494C21.97 30.409 23.8126 29.5808 25.8424 29.5797H31.5288C32.9474 29.5797 34.334 29.9971 35.4993 30.7416C36.6656 31.4872 37.6095 32.5556 38.1591 33.8585C38.2946 34.179 38.4201 34.5204 38.528 34.8662C38.636 35.2154 39.006 35.4103 39.3552 35.3024C39.7043 35.1945 39.8993 34.8244 39.7913 34.4753C39.6702 34.0843 39.5292 33.7032 39.3772 33.3431C38.7164 31.7791 37.5875 30.507 36.2108 29.627C34.834 28.747 33.2062 28.2569 31.5288 28.2569H25.8424C23.4481 28.2569 21.2685 29.2371 19.6946 30.8132C18.1185 32.3882 17.1383 34.5667 17.1383 36.9611V45.837C17.1383 46.2016 17.4346 46.4978 17.7991 46.4978C18.1637 46.4978 18.46 46.2016 18.46 45.837L18.4589 45.8392ZM28.6851 13.4578C30.3239 13.4578 31.8009 14.1197 32.8747 15.1935C33.9474 16.2674 34.6094 17.7454 34.6105 19.3832C34.6105 21.022 33.9485 22.4989 32.8747 23.5728C31.8009 24.6466 30.3228 25.3074 28.6851 25.3085C27.0462 25.3085 25.5693 24.6466 24.4955 23.5728C23.4216 22.4989 22.7608 21.0209 22.7597 19.3832C22.7597 17.7443 23.4216 16.2674 24.4955 15.1935C25.5693 14.1197 27.0474 13.4589 28.6851 13.4578V12.1361C26.6861 12.1361 24.8699 12.9479 23.5604 14.2585C22.2498 15.568 21.437 17.3842 21.4381 19.3832C21.4381 21.3822 22.2498 23.1983 23.5604 24.5078C24.8699 25.8185 26.6861 26.6313 28.6851 26.6302C30.6841 26.6302 32.5002 25.8185 33.8098 24.5078C35.1204 23.1983 35.9321 21.3822 35.9321 19.3832C35.9321 17.3842 35.1204 15.568 33.8098 14.2585C32.5002 12.9479 30.6841 12.135 28.6851 12.1361V13.4578ZM12.289 3.19741L14.5005 6.66342L9.22825 8.70757C9.17098 8.7296 9.11261 8.76264 9.06305 8.80008L6.57395 10.7198C6.44927 10.8154 6.36288 10.9524 6.33036 11.1061C6.29784 11.2598 6.32135 11.42 6.39663 11.5579L7.29424 13.2155L7.9837 14.8015C8.03493 14.9196 8.11956 15.0201 8.22718 15.0908C8.3348 15.1614 8.46072 15.199 8.58946 15.1991H11.7052L15.2351 19.642L10.8197 24.8592C10.7608 24.929 10.717 25.0102 10.691 25.0978C10.6651 25.1854 10.6575 25.2774 10.6688 25.368L10.866 26.9463L9.64347 25.9044L9.73929 21.1134C9.74259 20.9603 9.69083 20.8094 9.59611 20.6894L7.48919 18.0329L8.05639 16.6562C8.17975 16.3555 8.06631 16.0086 7.78876 15.8401L2.95043 12.9016L2.26428 14.0316L6.6191 16.6771L6.12018 17.8897C6.02877 18.1122 6.06401 18.3633 6.2138 18.5516L8.41434 21.326L8.31742 26.1929C8.31301 26.3912 8.39892 26.5806 8.54981 26.7095L11.3065 29.0576C11.5147 29.2349 11.8088 29.2658 12.0489 29.1358C12.289 29.0059 12.4244 28.7437 12.3903 28.4728L12.018 25.4936L16.5964 20.0836C16.6952 19.967 16.7505 19.8198 16.7529 19.6669C16.7553 19.5141 16.7047 19.3652 16.6096 19.2455L12.5445 14.1285C12.4825 14.0507 12.4038 13.9877 12.3142 13.9445C12.2246 13.9012 12.1264 13.8786 12.0268 13.8785H9.0256L8.49694 12.6637L8.47161 12.6119L7.82841 11.4236L9.79656 9.90586L15.7308 7.6051C15.8218 7.56958 15.9038 7.51435 15.971 7.44336C16.0382 7.37238 16.0888 7.2874 16.1192 7.19453C16.1497 7.10167 16.1591 7.00321 16.147 6.90624C16.1349 6.80927 16.1014 6.71619 16.049 6.63369L13.4036 2.48812L12.289 3.19741ZM16.4169 2.71941L18.4589 5.37372C18.6406 5.60941 18.9589 5.69532 19.2331 5.58188L23.2146 3.94854L22.7135 2.72602L19.199 4.16772L17.4654 1.91321L16.4169 2.71941Z"/>
<path d="M32.7931 34.9434V35.6042H45.1053L43.1371 45.1785H31.3635L33.4407 35.0767L32.7931 34.9434L32.1454 34.8101L29.9053 45.706C29.8656 45.8999 29.9152 46.1025 30.0407 46.2567C30.1663 46.4109 30.3546 46.5001 30.5529 46.5001H43.6757C43.9885 46.5001 44.2594 46.2787 44.3233 45.9725L46.5635 35.0767C46.6032 34.8828 46.5536 34.6802 46.428 34.526C46.3025 34.3718 46.1141 34.2826 45.9159 34.2826H32.7931C32.4803 34.2826 32.2093 34.504 32.1454 34.8101L32.7931 34.9434Z"/>
<path d="M30.6333 45.1783H24.4216C24.057 45.1783 23.7607 45.4746 23.7607 45.8391C23.7607 46.2037 24.057 46.5 24.4216 46.5H30.6333C30.9979 46.5 31.2941 46.2037 31.2941 45.8391C31.2941 45.4746 30.9979 45.1783 30.6333 45.1783ZM39.3352 40.1263H38.2141C37.8495 40.1263 37.5532 40.4226 37.5532 40.7871C37.5532 41.1517 37.8495 41.448 38.2141 41.448H39.3352C39.6998 41.448 39.9961 41.1517 39.9961 40.7871C39.9961 40.4226 39.6998 40.1263 39.3352 40.1263Z"/>
</mask>
<path d="M18.9654 31.9916C18.4422 32.0478 17.9114 32.0775 17.3728 32.0775C13.3319 32.0775 9.67861 30.4409 7.02981 27.7932C4.38211 25.1444 2.74547 21.4911 2.74547 17.4502C2.74547 13.4093 4.38211 9.756 7.02981 7.1072C9.67861 4.45951 13.3319 2.82287 17.3728 2.82287C20.7992 2.82287 23.9447 3.99913 26.4382 5.97059C28.9317 7.94204 30.7666 10.7076 31.5629 13.8839L32.8449 13.5623C31.9759 10.0963 29.9747 7.08187 27.2587 4.93309C24.5427 2.78432 21.1042 1.50012 17.3728 1.50122C12.9706 1.50122 8.97924 3.28765 6.09475 6.17214C3.20915 9.05663 1.42273 13.048 1.42383 17.4502C1.42383 21.8524 3.21025 25.8437 6.09475 28.7282C8.97924 31.6138 12.9706 33.4002 17.3728 33.4002C17.9587 33.4002 18.538 33.3683 19.1075 33.3066L18.9654 31.9916Z" fill="white"/>
<path d="M18.4589 45.8392V36.9633C18.4589 34.9334 19.2882 33.0908 20.6286 31.7494C21.97 30.409 23.8126 29.5808 25.8424 29.5797H31.5288C32.9474 29.5797 34.334 29.9971 35.4993 30.7416C36.6656 31.4872 37.6095 32.5556 38.1591 33.8585C38.2946 34.179 38.4201 34.5204 38.528 34.8662C38.636 35.2154 39.006 35.4103 39.3552 35.3024C39.7043 35.1945 39.8993 34.8244 39.7913 34.4753C39.6702 34.0843 39.5292 33.7032 39.3772 33.3431C38.7164 31.7791 37.5875 30.507 36.2108 29.627C34.834 28.747 33.2062 28.2569 31.5288 28.2569H25.8424C23.4481 28.2569 21.2685 29.2371 19.6946 30.8132C18.1185 32.3882 17.1383 34.5667 17.1383 36.9611V45.837C17.1383 46.2016 17.4346 46.4978 17.7991 46.4978C18.1637 46.4978 18.46 46.2016 18.46 45.837L18.4589 45.8392ZM28.6851 13.4578C30.3239 13.4578 31.8009 14.1197 32.8747 15.1935C33.9474 16.2674 34.6094 17.7454 34.6105 19.3832C34.6105 21.022 33.9485 22.4989 32.8747 23.5728C31.8009 24.6466 30.3228 25.3074 28.6851 25.3085C27.0462 25.3085 25.5693 24.6466 24.4955 23.5728C23.4216 22.4989 22.7608 21.0209 22.7597 19.3832C22.7597 17.7443 23.4216 16.2674 24.4955 15.1935C25.5693 14.1197 27.0474 13.4589 28.6851 13.4578V12.1361C26.6861 12.1361 24.8699 12.9479 23.5604 14.2585C22.2498 15.568 21.437 17.3842 21.4381 19.3832C21.4381 21.3822 22.2498 23.1983 23.5604 24.5078C24.8699 25.8185 26.6861 26.6313 28.6851 26.6302C30.6841 26.6302 32.5002 25.8185 33.8098 24.5078C35.1204 23.1983 35.9321 21.3822 35.9321 19.3832C35.9321 17.3842 35.1204 15.568 33.8098 14.2585C32.5002 12.9479 30.6841 12.135 28.6851 12.1361V13.4578ZM12.289 3.19741L14.5005 6.66342L9.22825 8.70757C9.17098 8.7296 9.11261 8.76264 9.06305 8.80008L6.57395 10.7198C6.44927 10.8154 6.36288 10.9524 6.33036 11.1061C6.29784 11.2598 6.32135 11.42 6.39663 11.5579L7.29424 13.2155L7.9837 14.8015C8.03493 14.9196 8.11956 15.0201 8.22718 15.0908C8.3348 15.1614 8.46072 15.199 8.58946 15.1991H11.7052L15.2351 19.642L10.8197 24.8592C10.7608 24.929 10.717 25.0102 10.691 25.0978C10.6651 25.1854 10.6575 25.2774 10.6688 25.368L10.866 26.9463L9.64347 25.9044L9.73929 21.1134C9.74259 20.9603 9.69083 20.8094 9.59611 20.6894L7.48919 18.0329L8.05639 16.6562C8.17975 16.3555 8.06631 16.0086 7.78876 15.8401L2.95043 12.9016L2.26428 14.0316L6.6191 16.6771L6.12018 17.8897C6.02877 18.1122 6.06401 18.3633 6.2138 18.5516L8.41434 21.326L8.31742 26.1929C8.31301 26.3912 8.39892 26.5806 8.54981 26.7095L11.3065 29.0576C11.5147 29.2349 11.8088 29.2658 12.0489 29.1358C12.289 29.0059 12.4244 28.7437 12.3903 28.4728L12.018 25.4936L16.5964 20.0836C16.6952 19.967 16.7505 19.8198 16.7529 19.6669C16.7553 19.5141 16.7047 19.3652 16.6096 19.2455L12.5445 14.1285C12.4825 14.0507 12.4038 13.9877 12.3142 13.9445C12.2246 13.9012 12.1264 13.8786 12.0268 13.8785H9.0256L8.49694 12.6637L8.47161 12.6119L7.82841 11.4236L9.79656 9.90586L15.7308 7.6051C15.8218 7.56958 15.9038 7.51435 15.971 7.44336C16.0382 7.37238 16.0888 7.2874 16.1192 7.19453C16.1497 7.10167 16.1591 7.00321 16.147 6.90624C16.1349 6.80927 16.1014 6.71619 16.049 6.63369L13.4036 2.48812L12.289 3.19741ZM16.4169 2.71941L18.4589 5.37372C18.6406 5.60941 18.9589 5.69532 19.2331 5.58188L23.2146 3.94854L22.7135 2.72602L19.199 4.16772L17.4654 1.91321L16.4169 2.71941Z" fill="white"/>
<path d="M32.7931 34.9434V35.6042H45.1053L43.1371 45.1785H31.3635L33.4407 35.0767L32.7931 34.9434L32.1454 34.8101L29.9053 45.706C29.8656 45.8999 29.9152 46.1025 30.0407 46.2567C30.1663 46.4109 30.3546 46.5001 30.5529 46.5001H43.6757C43.9885 46.5001 44.2594 46.2787 44.3233 45.9725L46.5635 35.0767C46.6032 34.8828 46.5536 34.6802 46.428 34.526C46.3025 34.3718 46.1141 34.2826 45.9159 34.2826H32.7931C32.4803 34.2826 32.2093 34.504 32.1454 34.8101L32.7931 34.9434Z" fill="white"/>
<path d="M30.6333 45.1783H24.4216C24.057 45.1783 23.7607 45.4746 23.7607 45.8391C23.7607 46.2037 24.057 46.5 24.4216 46.5H30.6333C30.9979 46.5 31.2941 46.2037 31.2941 45.8391C31.2941 45.4746 30.9979 45.1783 30.6333 45.1783ZM39.3352 40.1263H38.2141C37.8495 40.1263 37.5532 40.4226 37.5532 40.7871C37.5532 41.1517 37.8495 41.448 38.2141 41.448H39.3352C39.6998 41.448 39.9961 41.1517 39.9961 40.7871C39.9961 40.4226 39.6998 40.1263 39.3352 40.1263Z" fill="white"/>
<path d="M29.1851 13.4578V12.1361H28.1851V13.4578H29.1851ZM32.8938 34.4537L32.2462 34.3204L32.0447 35.2999L32.6923 35.4331L32.8938 34.4537ZM18.9654 31.9916L19.9596 31.8842L19.8522 30.8906L18.8586 30.9973L18.9654 31.9916ZM7.02981 27.7932L6.32256 28.5001L6.32285 28.5004L7.02981 27.7932ZM7.02981 7.1072L6.32285 6.39995L6.32256 6.40024L7.02981 7.1072ZM31.5629 13.8839L30.5929 14.1271L30.8361 15.0972L31.8062 14.8539L31.5629 13.8839ZM32.8449 13.5623L33.0882 14.5323L34.058 14.289L33.8148 13.3192L32.8449 13.5623ZM17.3728 1.50122L17.3728 2.50122H17.3731L17.3728 1.50122ZM6.09475 6.17214L6.80172 6.87938L6.80185 6.87925L6.09475 6.17214ZM1.42383 17.4502L2.42383 17.4502L2.42383 17.4499L1.42383 17.4502ZM6.09475 28.7282L6.80199 28.0213L6.80185 28.0211L6.09475 28.7282ZM19.1075 33.3066L19.2151 34.3008L20.2091 34.1932L20.1017 33.1992L19.1075 33.3066ZM18.4589 45.8392H17.4589L19.354 46.285L18.4589 45.8392ZM20.6286 31.7494L19.9217 31.042L19.9212 31.0425L20.6286 31.7494ZM25.8424 29.5797V28.5797H25.8419L25.8424 29.5797ZM35.4993 30.7416L36.0379 29.8991L36.0377 29.8989L35.4993 30.7416ZM38.1591 33.8585L37.2377 34.2471L37.238 34.2478L38.1591 33.8585ZM38.528 34.8662L39.4834 34.5709L39.4826 34.5683L38.528 34.8662ZM39.7913 34.4753L40.7467 34.1799L40.7465 34.1793L39.7913 34.4753ZM39.3772 33.3431L40.2985 32.9542L40.2984 32.9538L39.3772 33.3431ZM19.6946 30.8132L20.4015 31.5206L20.4022 31.5198L19.6946 30.8132ZM18.46 45.837H19.46L17.5648 45.3912L18.46 45.837ZM28.6851 13.4578V12.4578H28.6844L28.6851 13.4578ZM32.8747 15.1935L33.5822 14.4868L33.5818 14.4864L32.8747 15.1935ZM34.6105 19.3832H35.6105V19.3825L34.6105 19.3832ZM28.6851 25.3085V26.3085H28.6858L28.6851 25.3085ZM22.7597 19.3832H21.7597V19.3838L22.7597 19.3832ZM28.6851 12.1361V13.1361L28.6856 13.1361L28.6851 12.1361ZM23.5604 14.2585L24.2672 14.9659L24.2678 14.9653L23.5604 14.2585ZM21.4381 19.3832H22.4381V19.3826L21.4381 19.3832ZM23.5604 24.5078L24.2678 23.801L24.2672 23.8004L23.5604 24.5078ZM28.6851 26.6302V25.6302H28.6845L28.6851 26.6302ZM33.8098 24.5078L33.103 23.8004L33.1024 23.801L33.8098 24.5078ZM33.8098 14.2585L33.1024 14.9653L33.103 14.9659L33.8098 14.2585ZM12.289 3.19741L11.7521 2.35375L10.9074 2.89127L11.446 3.7353L12.289 3.19741ZM14.5005 6.66342L14.862 7.5958L16.0001 7.15454L15.3435 6.12552L14.5005 6.66342ZM9.22825 8.70757L9.58723 9.64092L9.58975 9.63994L9.22825 8.70757ZM9.06305 8.80008L8.46019 8.00218L8.45234 8.00823L9.06305 8.80008ZM6.57395 10.7198L7.18239 11.5134L7.18466 11.5116L6.57395 10.7198ZM6.39663 11.5579L7.27597 11.0817L7.27434 11.0787L6.39663 11.5579ZM7.29424 13.2155L8.21134 12.8168L8.19413 12.7772L8.17359 12.7393L7.29424 13.2155ZM7.9837 14.8015L8.90112 14.4035L8.90079 14.4028L7.9837 14.8015ZM8.58946 15.1991L8.58932 16.1991H8.58946V15.1991ZM11.7052 15.1991L12.4882 14.577L12.1879 14.1991H11.7052V15.1991ZM15.2351 19.642L15.9985 20.288L16.5282 19.662L16.0181 19.0199L15.2351 19.642ZM10.8197 24.8592L10.0564 24.2132L10.0555 24.2143L10.8197 24.8592ZM10.6688 25.368L11.6611 25.2441L11.6611 25.244L10.6688 25.368ZM10.866 26.9463L10.2174 27.7074L12.1775 29.3779L11.8583 26.8223L10.866 26.9463ZM9.64347 25.9044L8.64367 25.8844L8.6342 26.3581L8.99483 26.6655L9.64347 25.9044ZM9.73929 21.1134L8.73952 21.0918L8.73949 21.0934L9.73929 21.1134ZM9.59611 20.6894L10.3812 20.07L10.3796 20.068L9.59611 20.6894ZM7.48919 18.0329L6.56459 17.6519L6.34105 18.1945L6.7057 18.6543L7.48919 18.0329ZM8.05639 16.6562L8.981 17.0371L8.98156 17.0357L8.05639 16.6562ZM7.78876 15.8401L7.26967 16.6948L7.26978 16.6948L7.78876 15.8401ZM2.95043 12.9016L3.46953 12.0469L2.61474 11.5277L2.09567 12.3826L2.95043 12.9016ZM2.26428 14.0316L1.40952 13.5126L0.890602 14.3672L1.74509 14.8863L2.26428 14.0316ZM6.6191 16.6771L7.54389 17.0576L7.86936 16.2665L7.1383 15.8224L6.6191 16.6771ZM6.12018 17.8897L5.1954 17.5092L5.19522 17.5096L6.12018 17.8897ZM6.2138 18.5516L6.99727 17.9302L6.99645 17.9292L6.2138 18.5516ZM8.41434 21.326L9.41414 21.3459L9.4213 20.9863L9.19781 20.7046L8.41434 21.326ZM8.31742 26.1929L9.31717 26.2152L9.31722 26.2129L8.31742 26.1929ZM8.54981 26.7095L7.90039 27.4699L7.90137 27.4708L8.54981 26.7095ZM11.3065 29.0576L11.955 28.2964L11.955 28.2963L11.3065 29.0576ZM12.3903 28.4728L11.398 28.5968L11.3981 28.5978L12.3903 28.4728ZM12.018 25.4936L11.2547 24.8476L10.9714 25.1824L11.0257 25.6176L12.018 25.4936ZM16.5964 20.0836L15.8334 19.4373L15.8331 19.4376L16.5964 20.0836ZM16.6096 19.2455L17.3927 18.6235L17.3926 18.6235L16.6096 19.2455ZM12.5445 14.1285L13.3275 13.5065L13.3269 13.5058L12.5445 14.1285ZM12.0268 13.8785L12.0282 12.8785H12.0268V13.8785ZM9.0256 13.8785L8.10866 14.2775L8.37019 14.8785H9.0256V13.8785ZM8.49694 12.6637L9.41388 12.2647L9.40497 12.2442L9.39516 12.2242L8.49694 12.6637ZM8.47161 12.6119L9.36983 12.1724L9.36082 12.154L9.35106 12.1359L8.47161 12.6119ZM7.82841 11.4236L7.21776 10.6317L6.54395 11.1512L6.94896 11.8995L7.82841 11.4236ZM9.79656 9.90586L9.43507 8.97349L9.30034 9.02572L9.18591 9.11396L9.79656 9.90586ZM15.7308 7.6051L16.0922 8.53747L16.0942 8.53673L15.7308 7.6051ZM16.049 6.63369L16.8933 6.09776L16.892 6.09574L16.049 6.63369ZM13.4036 2.48812L14.2465 1.95018L13.7093 1.10827L12.8667 1.64446L13.4036 2.48812ZM16.4169 2.71941L15.8074 1.92666L15.0144 2.53636L15.6243 3.32915L16.4169 2.71941ZM18.4589 5.37372L17.6663 5.98346L17.6669 5.98432L18.4589 5.37372ZM19.2331 5.58188L18.8536 4.6567L18.8509 4.65781L19.2331 5.58188ZM23.2146 3.94854L23.5941 4.87372L24.519 4.49428L24.1399 3.56926L23.2146 3.94854ZM22.7135 2.72602L23.6387 2.34674L23.2594 1.42121L22.3339 1.80084L22.7135 2.72602ZM19.199 4.16772L18.4062 4.77728L18.8718 5.38278L19.5785 5.0929L19.199 4.16772ZM17.4654 1.91321L18.2582 1.30365L17.6486 0.510918L16.8559 1.12046L17.4654 1.91321ZM32.7931 34.9434L32.9946 33.9639L31.7931 33.7167V34.9434H32.7931ZM32.7931 35.6042H31.7931V36.6042H32.7931V35.6042ZM45.1053 35.6042L46.0848 35.8056L46.3318 34.6042H45.1053V35.6042ZM43.1371 45.1785V46.1785H43.9525L44.1167 45.3798L43.1371 45.1785ZM31.3635 45.1785L30.384 44.9771L30.1369 46.1785H31.3635V45.1785ZM33.4407 35.0767L34.4202 35.2781L34.6215 34.2987L33.6422 34.0972L33.4407 35.0767ZM32.1454 34.8101L31.1665 34.6059L31.1659 34.6088L32.1454 34.8101ZM29.9053 45.706L28.9257 45.5046L28.9255 45.5056L29.9053 45.706ZM44.3233 45.9725L45.3022 46.1768L45.3028 46.1739L44.3233 45.9725ZM46.5635 35.0767L47.543 35.2781L47.5432 35.2771L46.5635 35.0767ZM18.8586 30.9973C18.3697 31.0498 17.8745 31.0775 17.3728 31.0775V33.0775C17.9483 33.0775 18.5148 33.0457 19.0721 32.9859L18.8586 30.9973ZM17.3728 31.0775C13.6079 31.0775 10.2059 29.554 7.73677 27.0859L6.32285 28.5004C9.15133 31.3277 13.0558 33.0775 17.3728 33.0775V31.0775ZM7.73706 27.0862C5.26897 24.6171 3.74547 21.2151 3.74547 17.4502H1.74547C1.74547 21.7671 3.49525 25.6716 6.32256 28.5001L7.73706 27.0862ZM3.74547 17.4502C3.74547 13.6853 5.26897 10.2833 7.73706 7.81416L6.32256 6.40024C3.49525 9.22872 1.74547 13.1332 1.74547 17.4502H3.74547ZM7.73677 7.81446C10.2059 5.34637 13.6079 3.82287 17.3728 3.82287V1.82287C13.0558 1.82287 9.15133 3.57265 6.32285 6.39995L7.73677 7.81446ZM17.3728 3.82287C20.5659 3.82287 23.4946 4.91804 25.818 6.75503L27.0584 5.18615C24.3948 3.08023 21.0324 1.82287 17.3728 1.82287V3.82287ZM25.818 6.75503C28.1427 8.593 29.8516 11.1701 30.5929 14.1271L32.5329 13.6408C31.6816 10.2451 29.7207 7.29109 27.0584 5.18615L25.818 6.75503ZM31.8062 14.8539L33.0882 14.5323L32.6015 12.5924L31.3196 12.914L31.8062 14.8539ZM33.8148 13.3192C32.8909 9.6338 30.7637 6.43102 27.8792 4.14886L26.6383 5.71733C29.1856 7.73272 31.0609 10.5589 31.8749 13.8055L33.8148 13.3192ZM27.8792 4.14886C24.9928 1.86528 21.3372 0.500051 17.3725 0.501221L17.3731 2.50122C20.8713 2.50019 24.0926 3.70335 26.6383 5.71733L27.8792 4.14886ZM17.3728 0.501221C12.6948 0.501221 8.45206 2.40061 5.38764 5.46503L6.80185 6.87925C9.50641 4.17468 13.2464 2.50122 17.3728 2.50122V0.501221ZM5.38777 5.4649C2.32214 8.52936 0.422658 12.7723 0.423829 17.4504L2.42383 17.4499C2.4228 13.3237 4.09617 9.5839 6.80172 6.87938L5.38777 5.4649ZM0.423829 17.4502C0.423829 22.1281 2.32322 26.3709 5.38764 29.4353L6.80185 28.0211C4.09729 25.3166 2.42383 21.5766 2.42383 17.4502H0.423829ZM5.38751 29.4352C8.45198 32.5008 12.6948 34.4002 17.3728 34.4002V32.4002C13.2464 32.4002 9.5065 30.7268 6.80199 28.0213L5.38751 29.4352ZM17.3728 34.4002C17.995 34.4002 18.6103 34.3663 19.2151 34.3008L18.9998 32.3124C18.4658 32.3703 17.9224 32.4002 17.3728 32.4002V34.4002ZM20.1017 33.1992L19.9596 31.8842L17.9712 32.099L18.1132 33.414L20.1017 33.1992ZM19.4589 45.8392V36.9633H17.4589V45.8392H19.4589ZM19.4589 36.9633C19.4589 35.2119 20.1733 33.6198 21.3359 32.4562L19.9212 31.0425C18.4031 32.5618 17.4589 34.655 17.4589 36.9633H19.4589ZM21.3354 32.4568C22.4987 31.2944 24.0909 30.5806 25.843 30.5797L25.8419 28.5797C23.5344 28.5809 21.4413 29.5236 19.9217 31.042L21.3354 32.4568ZM25.8424 30.5797H31.5288V28.5797H25.8424V30.5797ZM31.5288 30.5797C32.7532 30.5797 33.9536 30.9407 34.9609 31.5843L36.0377 29.8989C34.7145 29.0535 33.1415 28.5797 31.5288 28.5797V30.5797ZM34.9607 31.5842C35.9687 32.2286 36.7723 33.1438 37.2377 34.2471L39.0805 33.4698C38.4467 31.9673 37.3625 30.7459 36.0379 29.8991L34.9607 31.5842ZM37.238 34.2478C37.3609 34.5386 37.4752 34.8495 37.5735 35.1642L39.4826 34.5683C39.365 34.1914 39.2282 33.8194 39.0802 33.4692L37.238 34.2478ZM37.5727 35.1616C37.844 36.0392 38.7746 36.5286 39.6505 36.2578L39.0598 34.347C39.2375 34.2921 39.428 34.3916 39.4834 34.5709L37.5727 35.1616ZM39.6505 36.2578C40.5281 35.9865 41.0175 35.0559 40.7467 34.1799L38.8359 34.7706C38.781 34.5929 38.8805 34.4024 39.0598 34.347L39.6505 36.2578ZM40.7465 34.1793C40.615 33.7547 40.4624 33.3427 40.2985 32.9542L38.4559 33.7319C38.5959 34.0637 38.7254 34.4138 38.8361 34.7712L40.7465 34.1793ZM40.2984 32.9538C39.5535 31.1909 38.2845 29.7658 36.7493 28.7844L35.6722 30.4696C36.8904 31.2483 37.8793 32.3673 38.4561 33.7323L40.2984 32.9538ZM36.7493 28.7844C35.2145 27.8034 33.4003 27.2569 31.5288 27.2569V29.2569C33.0121 29.2569 34.4536 29.6907 35.6722 30.4696L36.7493 28.7844ZM31.5288 27.2569H25.8424V29.2569H31.5288V27.2569ZM25.8424 27.2569C23.1704 27.2569 20.7396 28.3515 18.987 30.1066L20.4022 31.5198C21.7973 30.1228 23.7257 29.2569 25.8424 29.2569V27.2569ZM18.9877 30.1058C17.233 31.8593 16.1383 34.2888 16.1383 36.9611H18.1383C18.1383 34.8445 19.004 32.917 20.4015 31.5206L18.9877 30.1058ZM16.1383 36.9611V45.837H18.1383V36.9611H16.1383ZM16.1383 45.837C16.1383 46.7538 16.8823 47.4978 17.7991 47.4978V45.4978C17.9869 45.4978 18.1383 45.6493 18.1383 45.837H16.1383ZM17.7991 47.4978C18.716 47.4978 19.46 46.7539 19.46 45.837H17.46C17.46 45.6493 17.6114 45.4978 17.7991 45.4978V47.4978ZM17.5648 45.3912L17.5637 45.3934L19.354 46.285L19.3551 46.2828L17.5648 45.3912ZM28.6851 14.4578C30.0479 14.4578 31.2735 15.0065 32.1676 15.9007L33.5818 14.4864C32.3282 13.2329 30.6 12.4578 28.6851 12.4578V14.4578ZM32.1672 15.9003C33.0605 16.7944 33.6096 18.0215 33.6105 19.3838L35.6105 19.3825C35.6092 17.4693 34.8344 15.7403 33.5822 14.4868L32.1672 15.9003ZM33.6105 19.3832C33.6105 20.7459 33.0617 21.9716 32.1676 22.8657L33.5818 24.2799C34.8354 23.0263 35.6105 21.2981 35.6105 19.3832H33.6105ZM32.1676 22.8657C31.2739 23.7594 30.0471 24.3076 28.6844 24.3085L28.6858 26.3085C30.5985 26.3073 32.3278 25.5339 33.5818 24.2799L32.1676 22.8657ZM28.6851 24.3085C27.3223 24.3085 26.0967 23.7598 25.2026 22.8657L23.7884 24.2799C25.0419 25.5335 26.7702 26.3085 28.6851 26.3085V24.3085ZM25.2026 22.8657C24.3089 21.972 23.7606 20.7452 23.7597 19.3825L21.7597 19.3838C21.761 21.2966 22.5344 23.0259 23.7884 24.2799L25.2026 22.8657ZM23.7597 19.3832C23.7597 18.0204 24.3085 16.7948 25.2026 15.9007L23.7884 14.4864C22.5348 15.74 21.7597 17.4683 21.7597 19.3832H23.7597ZM25.2026 15.9007C26.0963 15.007 27.323 14.4587 28.6858 14.4578L28.6844 12.4578C26.7717 12.4591 25.0424 13.2324 23.7884 14.4864L25.2026 15.9007ZM28.6851 11.1361C26.4107 11.1361 24.3429 12.0606 22.853 13.5517L24.2678 14.9653C25.397 13.8351 26.9615 13.1361 28.6851 13.1361V11.1361ZM22.8536 13.5511C21.3628 15.0406 20.4368 17.1085 20.4381 19.3837L22.4381 19.3826C22.4371 17.6598 23.1368 16.0954 24.2672 14.9659L22.8536 13.5511ZM20.4381 19.3832C20.4381 21.6576 21.3625 23.7254 22.8536 25.2153L24.2672 23.8004C23.1371 22.6712 22.4381 21.1067 22.4381 19.3832H20.4381ZM22.853 25.2147C24.3426 26.7055 26.4105 27.6314 28.6856 27.6302L28.6845 25.6302C26.9617 25.6311 25.3973 24.9315 24.2678 23.801L22.853 25.2147ZM28.6851 27.6302C30.9595 27.6302 33.0273 26.7058 34.5172 25.2147L33.1024 23.801C31.9732 24.9312 30.4087 25.6302 28.6851 25.6302V27.6302ZM34.5166 25.2153C36.0077 23.7254 36.9321 21.6576 36.9321 19.3832H34.9321C34.9321 21.1067 34.2331 22.6712 33.103 23.8004L34.5166 25.2153ZM36.9321 19.3832C36.9321 17.1088 36.0077 15.0409 34.5166 13.5511L33.103 14.9659C34.2331 16.0951 34.9321 17.6596 34.9321 19.3832H36.9321ZM34.5172 13.5517C33.0276 12.0609 30.9597 11.1349 28.6845 11.1361L28.6856 13.1361C30.4084 13.1352 31.9729 13.8348 33.1024 14.9653L34.5172 13.5517ZM11.446 3.7353L13.6575 7.20132L15.3435 6.12552L13.132 2.65951L11.446 3.7353ZM14.139 5.73105L8.86676 7.7752L9.58975 9.63994L14.862 7.5958L14.139 5.73105ZM8.86927 7.77422C8.71914 7.83197 8.57934 7.91221 8.46021 8.00222L9.66588 9.59795C9.65364 9.6072 9.64269 9.61419 9.6324 9.61997C9.62227 9.62566 9.6076 9.63308 9.58723 9.64091L8.86927 7.77422ZM8.45234 8.00823L5.96324 9.92792L7.18466 11.5116L9.67376 9.59194L8.45234 8.00823ZM5.96551 9.92617C5.6515 10.1669 5.43391 10.512 5.35202 10.8991L7.3087 11.3131C7.29184 11.3928 7.24704 11.4638 7.18238 11.5134L5.96551 9.92617ZM5.35202 10.8991C5.27012 11.2862 5.32931 11.6898 5.51891 12.0371L7.27434 11.0787C7.31338 11.1502 7.32557 11.2333 7.3087 11.3131L5.35202 10.8991ZM5.51728 12.0341L6.4149 13.6917L8.17359 12.7393L7.27597 11.0817L5.51728 12.0341ZM6.37715 13.6142L7.06661 15.2001L8.90079 14.4028L8.21134 12.8168L6.37715 13.6142ZM7.06629 15.1994C7.19509 15.4963 7.40787 15.7492 7.67846 15.9268L8.7759 14.2548C8.83125 14.2911 8.87478 14.3428 8.90112 14.4035L7.06629 15.1994ZM7.67846 15.9268C7.94906 16.1044 8.26566 16.199 8.58932 16.1991L8.58959 14.1991C8.65579 14.1991 8.72055 14.2184 8.7759 14.2548L7.67846 15.9268ZM8.58946 16.1991H11.7052V14.1991H8.58946V16.1991ZM10.9223 15.8211L14.4522 20.2641L16.0181 19.0199L12.4882 14.577L10.9223 15.8211ZM14.4718 18.996L10.0564 24.2132L11.5831 25.5052L15.9985 20.288L14.4718 18.996ZM10.0555 24.2143C9.90756 24.3896 9.79752 24.5936 9.73231 24.8135L11.6498 25.3821C11.6365 25.4269 11.6141 25.4684 11.584 25.5041L10.0555 24.2143ZM9.73231 24.8135C9.66709 25.0334 9.64812 25.2645 9.67657 25.4921L11.6611 25.244C11.6669 25.2903 11.6631 25.3373 11.6498 25.3821L9.73231 24.8135ZM9.67656 25.492L9.8737 27.0702L11.8583 26.8223L11.6611 25.2441L9.67656 25.492ZM11.5146 26.1852L10.2921 25.1433L8.99483 26.6655L10.2174 27.7074L11.5146 26.1852ZM10.6433 25.9244L10.7391 21.1334L8.73949 21.0934L8.64367 25.8844L10.6433 25.9244ZM10.7391 21.135C10.7475 20.7446 10.6164 20.3681 10.3812 20.07L8.81105 21.3088C8.76523 21.2507 8.7377 21.1761 8.73952 21.0918L10.7391 21.135ZM10.3796 20.068L8.27268 17.4115L6.7057 18.6543L8.81262 21.3108L10.3796 20.068ZM8.41379 18.4138L8.981 17.0371L7.13179 16.2752L6.56459 17.6519L8.41379 18.4138ZM8.98156 17.0357C9.29087 16.2818 9.00791 15.4104 8.30774 14.9853L7.26978 16.6948C7.1247 16.6068 7.06863 16.4292 7.13123 16.2766L8.98156 17.0357ZM8.30786 14.9853L3.46953 12.0469L2.43134 13.7563L7.26967 16.6948L8.30786 14.9853ZM2.09567 12.3826L1.40952 13.5126L3.11904 14.5506L3.8052 13.4206L2.09567 12.3826ZM1.74509 14.8863L6.09991 17.5318L7.1383 15.8224L2.78347 13.1769L1.74509 14.8863ZM5.69432 16.2966L5.1954 17.5092L7.04497 18.2702L7.54389 17.0576L5.69432 16.2966ZM5.19522 17.5096C4.96652 18.0662 5.05497 18.7011 5.43115 19.1741L6.99645 17.9292C7.07306 18.0255 7.09102 18.1581 7.04515 18.2698L5.19522 17.5096ZM5.43033 19.1731L7.63087 21.9474L9.19781 20.7046L6.99727 17.9302L5.43033 19.1731ZM7.41454 21.3061L7.31762 26.173L9.31722 26.2129L9.41414 21.3459L7.41454 21.3061ZM7.31767 26.1707C7.3065 26.6732 7.52415 27.1486 7.90039 27.4699L9.19923 25.9491C9.27369 26.0127 9.31953 26.1092 9.31717 26.2152L7.31767 26.1707ZM7.90137 27.4708L10.6581 29.8189L11.955 28.2963L9.19824 25.9482L7.90137 27.4708ZM10.6581 29.8189C11.1806 30.2639 11.9214 30.3419 12.5249 30.0152L11.5728 28.2564C11.6962 28.1896 11.8488 28.2059 11.955 28.2964L10.6581 29.8189ZM12.5249 30.0152C13.1259 29.6899 13.4684 29.03 13.3824 28.3478L11.3981 28.5978C11.3805 28.4575 11.4521 28.3218 11.5728 28.2564L12.5249 30.0152ZM13.3826 28.3488L13.0103 25.3696L11.0257 25.6176L11.398 28.5968L13.3826 28.3488ZM12.7814 26.1396L17.3598 20.7296L15.8331 19.4376L11.2547 24.8476L12.7814 26.1396ZM17.3595 20.73C17.6078 20.4369 17.7468 20.0668 17.7528 19.6827L15.7531 19.6512C15.7543 19.5727 15.7827 19.4971 15.8334 19.4373L17.3595 20.73ZM17.7528 19.6827C17.7589 19.2986 17.6316 18.9243 17.3927 18.6235L15.8266 19.8675C15.7778 19.806 15.7518 19.7296 15.7531 19.6512L17.7528 19.6827ZM17.3926 18.6235L13.3275 13.5065L11.7615 14.7506L15.8267 19.8675L17.3926 18.6235ZM13.3269 13.5058C13.1714 13.3104 12.9739 13.1526 12.7491 13.044L11.8793 14.8449C11.8337 14.8229 11.7936 14.7909 11.7621 14.7513L13.3269 13.5058ZM12.7491 13.044C12.5242 12.9354 12.2778 12.8788 12.0282 12.8785L12.0255 14.8785C11.9749 14.8784 11.9249 14.867 11.8793 14.8449L12.7491 13.044ZM12.0268 12.8785H9.0256V14.8785H12.0268V12.8785ZM9.94254 13.4795L9.41388 12.2647L7.58001 13.0627L8.10866 14.2775L9.94254 13.4795ZM9.39516 12.2242L9.36983 12.1724L7.57339 13.0515L7.59872 13.1032L9.39516 12.2242ZM9.35106 12.1359L8.70786 10.9476L6.94896 11.8995L7.59216 13.0879L9.35106 12.1359ZM8.43906 12.2155L10.4072 10.6978L9.18591 9.11396L7.21776 10.6317L8.43906 12.2155ZM10.1581 10.8382L16.0922 8.53747L15.3693 6.67272L9.43507 8.97349L10.1581 10.8382ZM16.0942 8.53673C16.3227 8.44756 16.5288 8.30889 16.6974 8.13066L15.2446 6.75607C15.2789 6.71981 15.3209 6.6916 15.3673 6.67346L16.0942 8.53673ZM16.6974 8.13066C16.866 7.95243 16.9931 7.73907 17.0695 7.50591L15.1689 6.88316C15.1845 6.83573 15.2103 6.79233 15.2446 6.75607L16.6974 8.13066ZM17.0695 7.50591C17.1459 7.27274 17.1697 7.02555 17.1393 6.78208L15.1547 7.0304C15.1486 6.98087 15.1534 6.93059 15.1689 6.88316L17.0695 7.50591ZM17.1393 6.78208C17.1088 6.53862 17.0248 6.30492 16.8933 6.09776L15.2048 7.16961C15.178 7.12747 15.1609 7.07993 15.1547 7.0304L17.1393 6.78208ZM16.892 6.09574L14.2465 1.95018L12.5606 3.02607L15.2061 7.17163L16.892 6.09574ZM12.8667 1.64446L11.7521 2.35375L12.8258 4.04107L13.9404 3.33178L12.8667 1.64446ZM15.6243 3.32915L17.6663 5.98346L19.2515 4.76397L17.2095 2.10967L15.6243 3.32915ZM17.6669 5.98432C18.1223 6.5749 18.9207 6.7933 19.6154 6.50594L18.8509 4.65781C18.9971 4.59734 19.1589 4.64392 19.2508 4.76311L17.6669 5.98432ZM19.6127 6.50705L23.5941 4.87372L22.835 3.02337L18.8536 4.6567L19.6127 6.50705ZM24.1399 3.56926L23.6387 2.34674L21.7882 3.1053L22.2893 4.32782L24.1399 3.56926ZM22.3339 1.80084L18.8195 3.24253L19.5785 5.0929L23.093 3.6512L22.3339 1.80084ZM19.9917 3.55815L18.2582 1.30365L16.6727 2.52277L18.4062 4.77728L19.9917 3.55815ZM16.8559 1.12046L15.8074 1.92666L17.0265 3.51216L18.075 2.70595L16.8559 1.12046ZM31.7931 34.9434V35.6042H33.7931V34.9434H31.7931ZM32.7931 36.6042H45.1053V34.6042H32.7931V36.6042ZM44.1258 35.4029L42.1576 44.9771L44.1167 45.3798L46.0848 35.8056L44.1258 35.4029ZM43.1371 44.1785H31.3635V46.1785H43.1371V44.1785ZM32.343 45.3799L34.4202 35.2781L32.4612 34.8753L30.384 44.9771L32.343 45.3799ZM33.6422 34.0972L32.9946 33.9639L32.5915 35.9229L33.2391 36.0562L33.6422 34.0972ZM31.1659 34.6088L28.9257 45.5046L30.8848 45.9074L33.125 35.0115L31.1659 34.6088ZM28.9255 45.5056C28.8258 45.9934 28.9504 46.5014 29.2653 46.8881L30.8162 45.6253C30.88 45.7036 30.9054 45.8063 30.885 45.9064L28.9255 45.5056ZM29.2653 46.8881C29.5811 47.276 30.0544 47.5001 30.5529 47.5001V45.5001C30.6548 45.5001 30.7515 45.5458 30.8162 45.6253L29.2653 46.8881ZM30.5529 47.5001H43.6757V45.5001H30.5529V47.5001ZM43.6757 47.5001C44.4646 47.5001 45.1422 46.9441 45.3022 46.1768L43.3444 45.7683C43.3767 45.6134 43.5124 45.5001 43.6757 45.5001V47.5001ZM45.3028 46.1739L47.543 35.2781L45.584 34.8753L43.3438 45.7712L45.3028 46.1739ZM47.5432 35.2771C47.643 34.7893 47.5184 34.2813 47.2035 33.8946L45.6526 35.1574C45.5888 35.079 45.5633 34.9764 45.5838 34.8763L47.5432 35.2771ZM47.2035 33.8946C46.8877 33.5067 46.4143 33.2826 45.9159 33.2826V35.2826C45.814 35.2826 45.7173 35.2369 45.6526 35.1574L47.2035 33.8946ZM45.9159 33.2826H32.7931V35.2826H45.9159V33.2826ZM32.7931 33.2826C32.0042 33.2826 31.3266 33.8386 31.1665 34.6059L33.1244 35.0144C33.092 35.1693 32.9564 35.2826 32.7931 35.2826V33.2826ZM30.6333 44.1783H24.4216V46.1783H30.6333V44.1783ZM24.4216 44.1783C23.5047 44.1783 22.7607 44.9223 22.7607 45.8391H24.7607C24.7607 46.0269 24.6093 46.1783 24.4216 46.1783V44.1783ZM22.7607 45.8391C22.7607 46.756 23.5047 47.5 24.4216 47.5V45.5C24.6093 45.5 24.7607 45.6514 24.7607 45.8391H22.7607ZM24.4216 47.5H30.6333V45.5H24.4216V47.5ZM30.6333 47.5C31.5501 47.5 32.2941 46.756 32.2941 45.8391H30.2941C30.2941 45.6514 30.4456 45.5 30.6333 45.5V47.5ZM32.2941 45.8391C32.2941 44.9223 31.5502 44.1783 30.6333 44.1783V46.1783C30.4456 46.1783 30.2941 46.0269 30.2941 45.8391H32.2941ZM39.3352 39.1263H38.2141V41.1263H39.3352V39.1263ZM38.2141 39.1263C37.2972 39.1263 36.5532 39.8703 36.5532 40.7871H38.5532C38.5532 40.9749 38.4018 41.1263 38.2141 41.1263V39.1263ZM36.5532 40.7871C36.5532 41.704 37.2972 42.448 38.2141 42.448V40.448C38.4018 40.448 38.5532 40.5994 38.5532 40.7871H36.5532ZM38.2141 42.448H39.3352V40.448H38.2141V42.448ZM39.3352 42.448C40.2521 42.448 40.9961 41.704 40.9961 40.7871H38.9961C38.9961 40.5994 39.1475 40.448 39.3352 40.448V42.448ZM40.9961 40.7871C40.9961 39.8703 40.2521 39.1263 39.3352 39.1263V41.1263C39.1475 41.1263 38.9961 40.9749 38.9961 40.7871H40.9961Z" fill="#4EBD09" mask="url(#path-1-inside-1_845_4636)"/>
</svg>
