<svg width="48" height="48" viewBox="0 0 48 48" fill="none" xmlns="http://www.w3.org/2000/svg">
<path d="M40.8937 1.86255H7.10685C4.21414 1.86255 1.86914 4.16787 1.86914 7.01162V26.6869C1.86914 29.5306 4.21414 31.836 7.10685 31.836H40.8937C43.7864 31.836 46.1314 29.5306 46.1314 26.6869V7.01162C46.1314 4.16787 43.7864 1.86255 40.8937 1.86255Z" stroke="#4EBD09" stroke-miterlimit="10"/>
<path d="M34.1512 46.1371H13.8496C13.6278 46.1392 13.4092 46.0845 13.2154 45.9782C13.0217 45.8719 12.8595 45.7179 12.7448 45.5312C12.6301 45.3445 12.5669 45.1316 12.5614 44.9136C12.5559 44.6955 12.6084 44.4799 12.7135 44.2878L15.5168 38.9429C15.6241 38.7376 15.7869 38.5652 15.9873 38.445C16.1877 38.3247 16.418 38.2611 16.6529 38.2612H31.407C31.6418 38.2611 31.8721 38.3247 32.0726 38.445C32.273 38.5652 32.4358 38.7376 32.543 38.9429L35.2873 44.2878C35.3925 44.4799 35.4449 44.6955 35.4394 44.9136C35.4339 45.1316 35.3707 45.3445 35.256 45.5312C35.1414 45.7179 34.9791 45.8719 34.7854 45.9782C34.5917 46.0845 34.3731 46.1392 34.1512 46.1371V46.1371Z" stroke="#4EBD09" stroke-miterlimit="10"/>
<path d="M27.334 31.8362V39.8064" stroke="#4EBD09" stroke-miterlimit="10" stroke-linecap="round"/>
<path d="M20.4888 31.8362V39.8064" stroke="#4EBD09" stroke-miterlimit="10" stroke-linecap="round"/>
<path d="M30.5581 11.5298L35.1835 16.3888C35.4178 16.6402 35.5478 16.9688 35.5478 17.3098C35.5478 17.6508 35.4178 17.9794 35.1835 18.2308L30.5581 23.0898" stroke="#4EBD09" stroke-miterlimit="10" stroke-linecap="round"/>
<path d="M17.4423 23.0898L12.8169 18.2308C12.5826 17.9794 12.4526 17.6508 12.4526 17.3098C12.4526 16.9688 12.5826 16.6402 12.8169 16.3888L17.4423 11.5298" stroke="#4EBD09" stroke-miterlimit="10" stroke-linecap="round"/>
<path d="M22.1045 23.0898L25.8963 11.5298" stroke="white" stroke-miterlimit="10" stroke-linecap="round"/>
</svg>
