<svg width="48" height="48" viewBox="0 0 48 48" fill="none" xmlns="http://www.w3.org/2000/svg">
<mask id="path-1-inside-1_845_4624" fill="white">
<path d="M23.5276 29.25H24.3751C24.8724 29.25 25.3493 29.4475 25.7009 29.7992C26.0526 30.1508 26.2501 30.6277 26.2501 31.125C26.2501 31.3239 26.3291 31.5147 26.4698 31.6553C26.6104 31.796 26.8012 31.875 27.0001 31.875C27.199 31.875 27.3898 31.796 27.5304 31.6553C27.6711 31.5147 27.7501 31.3239 27.7501 31.125C27.7477 30.2972 27.4404 29.4993 26.8871 28.8837C26.3337 28.2681 25.573 27.8778 24.7501 27.7875V26.25C24.7501 26.0511 24.6711 25.8603 24.5304 25.7197C24.3898 25.579 24.199 25.5 24.0001 25.5C23.8012 25.5 23.6104 25.579 23.4698 25.7197C23.3291 25.8603 23.2501 26.0511 23.2501 26.25V27.75C22.4804 27.8174 21.7594 28.1551 21.215 28.7034C20.6705 29.2516 20.3378 29.975 20.2758 30.7451C20.2138 31.5153 20.4265 32.2825 20.8762 32.9108C21.3259 33.5391 21.9836 33.9878 22.7326 34.1775L23.8201 34.4475L24.9076 34.7175C25.3761 34.7752 25.8024 35.0166 26.0928 35.3886C26.3833 35.7606 26.514 36.2328 26.4564 36.7013C26.3987 37.1697 26.1573 37.596 25.7852 37.8865C25.4132 38.1769 24.9411 38.3077 24.4726 38.25H23.6251C23.1278 38.25 22.6509 38.0525 22.2993 37.7008C21.9477 37.3492 21.7501 36.8723 21.7501 36.375C21.7501 36.1761 21.6711 35.9853 21.5304 35.8447C21.3898 35.704 21.199 35.625 21.0001 35.625C20.8012 35.625 20.6104 35.704 20.4698 35.8447C20.3291 35.9853 20.2501 36.1761 20.2501 36.375C20.2433 37.2092 20.5463 38.0163 21.1006 38.6398C21.6549 39.2634 22.4208 39.659 23.2501 39.75V41.25C23.2501 41.4489 23.3291 41.6397 23.4698 41.7803C23.6104 41.921 23.8012 42 24.0001 42C24.199 42 24.3898 41.921 24.5304 41.7803C24.6711 41.6397 24.7501 41.4489 24.7501 41.25V39.75C25.5198 39.6826 26.2408 39.3449 26.7852 38.7966C27.3297 38.2484 27.6624 37.525 27.7244 36.7549C27.7864 35.9847 27.5737 35.2175 27.124 34.5892C26.6743 33.9609 26.0166 33.5122 25.2676 33.3225L24.1801 33L23.0926 32.73C22.689 32.6101 22.3411 32.3509 22.1108 31.9985C21.8805 31.6461 21.7827 31.2234 21.835 30.8056C21.8872 30.3879 22.086 30.0022 22.3959 29.7173C22.7059 29.4325 23.107 29.2668 23.5276 29.25Z"/>
</mask>
<path d="M23.5276 29.25H24.3751C24.8724 29.25 25.3493 29.4475 25.7009 29.7992C26.0526 30.1508 26.2501 30.6277 26.2501 31.125C26.2501 31.3239 26.3291 31.5147 26.4698 31.6553C26.6104 31.796 26.8012 31.875 27.0001 31.875C27.199 31.875 27.3898 31.796 27.5304 31.6553C27.6711 31.5147 27.7501 31.3239 27.7501 31.125C27.7477 30.2972 27.4404 29.4993 26.8871 28.8837C26.3337 28.2681 25.573 27.8778 24.7501 27.7875V26.25C24.7501 26.0511 24.6711 25.8603 24.5304 25.7197C24.3898 25.579 24.199 25.5 24.0001 25.5C23.8012 25.5 23.6104 25.579 23.4698 25.7197C23.3291 25.8603 23.2501 26.0511 23.2501 26.25V27.75C22.4804 27.8174 21.7594 28.1551 21.215 28.7034C20.6705 29.2516 20.3378 29.975 20.2758 30.7451C20.2138 31.5153 20.4265 32.2825 20.8762 32.9108C21.3259 33.5391 21.9836 33.9878 22.7326 34.1775L23.8201 34.4475L24.9076 34.7175C25.3761 34.7752 25.8024 35.0166 26.0928 35.3886C26.3833 35.7606 26.514 36.2328 26.4564 36.7013C26.3987 37.1697 26.1573 37.596 25.7852 37.8865C25.4132 38.1769 24.9411 38.3077 24.4726 38.25H23.6251C23.1278 38.25 22.6509 38.0525 22.2993 37.7008C21.9477 37.3492 21.7501 36.8723 21.7501 36.375C21.7501 36.1761 21.6711 35.9853 21.5304 35.8447C21.3898 35.704 21.199 35.625 21.0001 35.625C20.8012 35.625 20.6104 35.704 20.4698 35.8447C20.3291 35.9853 20.2501 36.1761 20.2501 36.375C20.2433 37.2092 20.5463 38.0163 21.1006 38.6398C21.6549 39.2634 22.4208 39.659 23.2501 39.75V41.25C23.2501 41.4489 23.3291 41.6397 23.4698 41.7803C23.6104 41.921 23.8012 42 24.0001 42C24.199 42 24.3898 41.921 24.5304 41.7803C24.6711 41.6397 24.7501 41.4489 24.7501 41.25V39.75C25.5198 39.6826 26.2408 39.3449 26.7852 38.7966C27.3297 38.2484 27.6624 37.525 27.7244 36.7549C27.7864 35.9847 27.5737 35.2175 27.124 34.5892C26.6743 33.9609 26.0166 33.5122 25.2676 33.3225L24.1801 33L23.0926 32.73C22.689 32.6101 22.3411 32.3509 22.1108 31.9985C21.8805 31.6461 21.7827 31.2234 21.835 30.8056C21.8872 30.3879 22.086 30.0022 22.3959 29.7173C22.7059 29.4325 23.107 29.2668 23.5276 29.25Z" fill="white"/>
<path d="M23.5276 29.25V21.25H23.3675L23.2075 21.2564L23.5276 29.25ZM27.7501 31.125H35.7501V31.1133L35.7501 31.1015L27.7501 31.125ZM24.7501 27.7875H16.7501V34.9573L23.8771 35.7397L24.7501 27.7875ZM23.2501 27.75L23.9478 35.7195L31.2501 35.0803V27.75H23.2501ZM22.7326 34.1775L20.7689 41.9327L20.7869 41.9373L20.8049 41.9418L22.7326 34.1775ZM23.8201 34.4475L25.7478 26.6832L25.7478 26.6832L23.8201 34.4475ZM24.9076 34.7175L22.9799 42.4818L23.4496 42.5984L23.9299 42.6575L24.9076 34.7175ZM24.4726 38.25L25.4504 30.31L24.9633 30.25H24.4726V38.25ZM23.6251 38.25V30.25V38.25ZM21.7501 36.375H29.7501H21.7501ZM20.2501 36.375L28.2498 36.4406L28.2501 36.4078V36.375H20.2501ZM23.2501 39.75H31.2501V32.58L24.1229 31.7978L23.2501 39.75ZM24.7501 39.75L24.0525 31.7805L16.7501 32.4197V39.75H24.7501ZM25.2676 33.3225L22.9931 40.9923L23.1476 41.0382L23.3039 41.0777L25.2676 33.3225ZM24.1801 33L26.4546 25.3302L26.2823 25.279L26.1078 25.2357L24.1801 33ZM23.0926 32.73L20.8147 40.3989L20.9888 40.4505L21.1649 40.4943L23.0926 32.73ZM23.5276 37.25H24.3751V21.25H23.5276V37.25ZM24.3751 37.25C22.7507 37.25 21.1928 36.6047 20.0441 35.456L31.3578 24.1423C29.5059 22.2904 26.9941 21.25 24.3751 21.25V37.25ZM20.0441 35.456C18.8954 34.3073 18.2501 32.7494 18.2501 31.125H34.2501C34.2501 28.506 33.2097 25.9943 31.3578 24.1423L20.0441 35.456ZM18.2501 31.125C18.2501 33.4456 19.172 35.6712 20.8129 37.3122L32.1266 25.9985C33.4863 27.3581 34.2501 29.2022 34.2501 31.125H18.2501ZM20.8129 37.3122C22.4539 38.9531 24.6795 39.875 27.0001 39.875V23.875C28.9229 23.875 30.767 24.6388 32.1266 25.9985L20.8129 37.3122ZM27.0001 39.875C29.3207 39.875 31.5463 38.9531 33.1873 37.3122L21.8736 25.9985C23.2332 24.6388 25.0773 23.875 27.0001 23.875V39.875ZM33.1873 37.3122C34.8283 35.6712 35.7501 33.4456 35.7501 31.125H19.7501C19.7501 29.2022 20.5139 27.3581 21.8736 25.9985L33.1873 37.3122ZM35.7501 31.1015C35.7419 28.3072 34.7047 25.6138 32.8367 23.5357L20.9374 34.2317C20.1761 33.3848 19.7535 32.2872 19.7501 31.1485L35.7501 31.1015ZM32.8367 23.5357C30.9688 21.4575 28.4008 20.1402 25.6231 19.8353L23.8771 35.7397C22.7451 35.6155 21.6986 35.0786 20.9374 34.2317L32.8367 23.5357ZM32.7501 27.7875V26.25H16.7501V27.7875H32.7501ZM32.7501 26.25C32.7501 23.9294 31.8283 21.7038 30.1873 20.0628L18.8736 31.3765C17.5139 30.0169 16.7501 28.1728 16.7501 26.25H32.7501ZM30.1873 20.0628C28.5463 18.4219 26.3207 17.5 24.0001 17.5V33.5C22.0773 33.5 20.2332 32.7362 18.8736 31.3765L30.1873 20.0628ZM24.0001 17.5C21.6795 17.5 19.4539 18.4219 17.8129 20.0628L29.1266 31.3765C27.767 32.7362 25.9229 33.5 24.0001 33.5V17.5ZM17.8129 20.0628C16.172 21.7038 15.2501 23.9294 15.2501 26.25H31.2501C31.2501 28.1728 30.4863 30.0169 29.1266 31.3765L17.8129 20.0628ZM15.2501 26.25V27.75H31.2501V26.25H15.2501ZM22.5525 19.7805C19.8997 20.0127 17.4148 21.1768 15.5384 23.0663L26.8915 34.3405C26.104 35.1335 25.0611 35.6221 23.9478 35.7195L22.5525 19.7805ZM15.5384 23.0663C13.662 24.9558 12.5153 27.4487 12.3016 30.1031L28.25 31.3871C28.1603 32.5012 27.6791 33.5474 26.8915 34.3405L15.5384 23.0663ZM12.3016 30.1031C12.0879 32.7574 12.821 35.4017 14.3709 37.5671L27.3815 28.2545C28.032 29.1633 28.3397 30.2731 28.25 31.3871L12.3016 30.1031ZM14.3709 37.5671C15.9208 39.7325 18.1875 41.2791 20.7689 41.9327L24.6963 26.4223C25.7797 26.6966 26.731 27.3457 27.3815 28.2545L14.3709 37.5671ZM20.8049 41.9418L21.8924 42.2118L25.7478 26.6832L24.6603 26.4132L20.8049 41.9418ZM21.8924 42.2118L22.9799 42.4818L26.8353 26.9532L25.7478 26.6832L21.8924 42.2118ZM23.9299 42.6575C22.2925 42.4559 20.8023 41.6121 19.787 40.3117L32.3987 30.4655C30.8025 28.4211 28.4596 27.0945 25.8854 26.7775L23.9299 42.6575ZM19.787 40.3117C18.7718 39.0113 18.3147 37.3609 18.5163 35.7235L34.3964 37.679C34.7134 35.1047 33.9948 32.51 32.3987 30.4655L19.787 40.3117ZM18.5163 35.7235C18.718 34.0861 19.5618 32.5959 20.8622 31.5807L30.7083 44.1923C32.7527 42.5962 34.0794 40.2533 34.3964 37.679L18.5163 35.7235ZM20.8622 31.5807C22.1626 30.5654 23.813 30.1083 25.4504 30.31L23.4949 46.19C26.0691 46.507 28.6639 45.7884 30.7083 44.1923L20.8622 31.5807ZM24.4726 30.25H23.6251V46.25H24.4726V30.25ZM23.6251 30.25C25.2495 30.25 26.8075 30.8953 27.9561 32.044L16.6424 43.3577C18.4944 45.2096 21.0061 46.25 23.6251 46.25V30.25ZM27.9561 32.044C29.1048 33.1926 29.7501 34.7506 29.7501 36.375H13.7501C13.7501 38.994 14.7905 41.5058 16.6424 43.3577L27.9561 32.044ZM29.7501 36.375C29.7501 34.0544 28.8283 31.8288 27.1873 30.1878L15.8736 41.5015C14.5139 40.1419 13.7501 38.2978 13.7501 36.375H29.7501ZM27.1873 30.1878C25.5463 28.5469 23.3207 27.625 21.0001 27.625V43.625C19.0773 43.625 17.2332 42.8612 15.8736 41.5015L27.1873 30.1878ZM21.0001 27.625C18.6795 27.625 16.4539 28.5469 14.8129 30.1878L26.1266 41.5015C24.767 42.8612 22.9229 43.625 21.0001 43.625V27.625ZM14.8129 30.1878C13.172 31.8288 12.2501 34.0544 12.2501 36.375H28.2501C28.2501 38.2978 27.4863 40.1419 26.1266 41.5015L14.8129 30.1878ZM12.2504 36.3094C12.2273 39.1255 13.2504 41.8499 15.1213 43.9548L27.0799 33.3249C27.8423 34.1827 28.2593 35.293 28.2498 36.4406L12.2504 36.3094ZM15.1213 43.9548C16.9923 46.0596 19.578 47.395 22.3773 47.7022L24.1229 31.7978C25.2637 31.923 26.3174 32.4672 27.0799 33.3249L15.1213 43.9548ZM15.2501 39.75V41.25H31.2501V39.75H15.2501ZM15.2501 41.25C15.2501 43.5706 16.172 45.7962 17.8129 47.4372L29.1266 36.1235C30.4863 37.4831 31.2501 39.3272 31.2501 41.25H15.2501ZM17.8129 47.4372C19.4539 49.0781 21.6795 50 24.0001 50V34C25.9229 34 27.767 34.7638 29.1266 36.1235L17.8129 47.4372ZM24.0001 50C26.3207 50 28.5463 49.0781 30.1873 47.4372L18.8736 36.1235C20.2332 34.7638 22.0773 34 24.0001 34V50ZM30.1873 47.4372C31.8283 45.7962 32.7501 43.5706 32.7501 41.25H16.7501C16.7501 39.3272 17.5139 37.4831 18.8736 36.1235L30.1873 47.4372ZM32.7501 41.25V39.75H16.7501V41.25H32.7501ZM25.4478 47.7195C28.1005 47.4873 30.5854 46.3232 32.4618 44.4337L21.1087 33.1595C21.8962 32.3665 22.9391 31.8779 24.0525 31.7805L25.4478 47.7195ZM32.4618 44.4337C34.3382 42.5442 35.4849 40.0512 35.6986 37.3969L19.7502 36.1129C19.8399 34.9988 20.3212 33.9526 21.1087 33.1595L32.4618 44.4337ZM35.6986 37.3969C35.9123 34.7426 35.1792 32.0983 33.6293 29.9329L20.6187 39.2455C19.9682 38.3367 19.6605 37.2269 19.7502 36.1129L35.6986 37.3969ZM33.6293 29.9329C32.0794 27.7675 29.8128 26.2209 27.2313 25.5673L23.3039 41.0777C22.2205 40.8034 21.2692 40.1543 20.6187 39.2455L33.6293 29.9329ZM27.5421 25.6527L26.4546 25.3302L21.9056 40.6698L22.9931 40.9923L27.5421 25.6527ZM26.1078 25.2357L25.0203 24.9657L21.1649 40.4943L22.2524 40.7643L26.1078 25.2357ZM25.3705 25.0611C26.7833 25.4808 28.0012 26.3883 28.8075 27.622L15.4141 36.375C16.681 38.3135 18.5948 39.7395 20.8147 40.3989L25.3705 25.0611ZM28.8075 27.622C29.6138 28.8556 29.956 30.3355 29.7732 31.7979L13.8967 29.8133C13.6095 32.1112 14.1472 34.4365 15.4141 36.375L28.8075 27.622ZM29.7732 31.7979C29.5904 33.2603 28.8944 34.6104 27.8093 35.6076L16.9826 23.827C15.2775 25.394 14.184 27.5154 13.8967 29.8133L29.7732 31.7979ZM27.8093 35.6076C26.7242 36.6049 25.3203 37.1846 23.8477 37.2436L23.2075 21.2564C20.8936 21.3491 18.6877 22.26 16.9826 23.827L27.8093 35.6076Z" fill="#4EBD09" mask="url(#path-1-inside-1_845_4624)"/>
<mask id="path-3-inside-2_845_4624" fill="white">
<path d="M42.4801 15.9225L24.4801 0.922498C24.3453 0.810248 24.1755 0.748779 24.0001 0.748779C23.8247 0.748779 23.6549 0.810248 23.5201 0.922498L5.52009 15.9225C5.40149 16.0213 5.31624 16.1542 5.27598 16.3032C5.23571 16.4522 5.24239 16.6099 5.29509 16.755C5.3475 16.9 5.44329 17.0252 5.56944 17.1138C5.69559 17.2024 5.84596 17.2499 6.00009 17.25H13.5001V25.2825C12.1806 26.917 11.2607 28.8368 10.8136 30.8893C10.3666 32.9418 10.4046 35.0703 10.9248 37.1055C11.445 39.1407 12.4329 41.0264 13.81 42.6127C15.1871 44.1989 16.9154 45.442 18.8573 46.2428C20.7993 47.0437 22.9014 47.3804 24.9963 47.226C27.0912 47.0717 29.1213 46.4306 30.9249 45.3537C32.7285 44.2769 34.2559 42.794 35.3857 41.0231C36.5154 39.2521 37.2163 37.242 37.4326 35.1525C37.5001 34.695 37.5001 34.2225 37.5001 33.75C37.496 30.6678 36.4374 27.6798 34.5001 25.2825V17.25H42.0001C42.1542 17.2499 42.3046 17.2024 42.4308 17.1138C42.5569 17.0252 42.6527 16.9 42.7051 16.755C42.7578 16.6099 42.7645 16.4522 42.7242 16.3032C42.6839 16.1542 42.5987 16.0213 42.4801 15.9225ZM35.9401 35.0025C35.6629 37.6975 34.4818 40.2194 32.5891 42.1579C30.6964 44.0964 28.2034 45.3373 25.5158 45.6788C22.8281 46.0203 20.104 45.4423 17.7866 44.0388C15.4693 42.6354 13.695 40.489 12.7526 37.9489C11.8101 35.4089 11.7549 32.6247 12.596 30.0493C13.437 27.4739 15.1248 25.2589 17.3847 23.7647C19.6447 22.2705 22.3437 21.5849 25.0428 21.8197C27.7418 22.0544 30.282 23.1956 32.2501 25.0575C32.5651 25.3575 32.8651 25.68 33.1576 26.0175C34.9879 28.1788 35.9948 30.9178 36.0001 33.75C36.0001 34.17 36.0001 34.59 35.9401 35.0025ZM33.7501 15.75C33.5512 15.75 33.3604 15.829 33.2198 15.9697C33.0791 16.1103 33.0001 16.3011 33.0001 16.5V23.6925C32.8201 23.5275 32.6176 23.3775 32.4301 23.2275C32.3304 23.1362 32.2252 23.0511 32.1151 22.9725C31.7578 22.7006 31.3846 22.4501 30.9976 22.2225L30.8026 22.1175C30.4798 21.9224 30.1468 21.7447 29.8051 21.585L29.3851 21.3975C29.1076 21.2775 28.8301 21.165 28.5526 21.0675L28.0651 20.9025C27.7876 20.8125 27.5101 20.7375 27.2251 20.67L26.7301 20.55C26.4301 20.49 26.1226 20.445 25.8151 20.4L25.3801 20.34C24.9226 20.25 24.4651 20.25 24.0001 20.25C23.5351 20.25 23.0776 20.25 22.6201 20.325L22.1851 20.385C21.8776 20.43 21.5701 20.475 21.2701 20.535L20.7751 20.655C20.4901 20.7225 20.2126 20.7975 19.9351 20.8875L19.4476 21.0525C19.1701 21.15 18.8926 21.2625 18.6226 21.3825C18.4801 21.4425 18.3301 21.5025 18.1951 21.57C17.8576 21.7275 17.5276 21.9075 17.1976 22.095L17.0026 22.2075C16.6155 22.4351 16.2424 22.6856 15.8851 22.9575C15.775 23.0361 15.6698 23.1212 15.5701 23.2125C15.3751 23.3625 15.1801 23.5125 15.0001 23.6775V16.5C15.0001 16.3011 14.9211 16.1103 14.7804 15.9697C14.6398 15.829 14.449 15.75 14.2501 15.75H8.07009L24.0001 2.475L39.9301 15.75H33.7501Z"/>
</mask>
<path d="M42.4801 15.9225L24.4801 0.922498C24.3453 0.810248 24.1755 0.748779 24.0001 0.748779C23.8247 0.748779 23.6549 0.810248 23.5201 0.922498L5.52009 15.9225C5.40149 16.0213 5.31624 16.1542 5.27598 16.3032C5.23571 16.4522 5.24239 16.6099 5.29509 16.755C5.3475 16.9 5.44329 17.0252 5.56944 17.1138C5.69559 17.2024 5.84596 17.2499 6.00009 17.25H13.5001V25.2825C12.1806 26.917 11.2607 28.8368 10.8136 30.8893C10.3666 32.9418 10.4046 35.0703 10.9248 37.1055C11.445 39.1407 12.4329 41.0264 13.81 42.6127C15.1871 44.1989 16.9154 45.442 18.8573 46.2428C20.7993 47.0437 22.9014 47.3804 24.9963 47.226C27.0912 47.0717 29.1213 46.4306 30.9249 45.3537C32.7285 44.2769 34.2559 42.794 35.3857 41.0231C36.5154 39.2521 37.2163 37.242 37.4326 35.1525C37.5001 34.695 37.5001 34.2225 37.5001 33.75C37.496 30.6678 36.4374 27.6798 34.5001 25.2825V17.25H42.0001C42.1542 17.2499 42.3046 17.2024 42.4308 17.1138C42.5569 17.0252 42.6527 16.9 42.7051 16.755C42.7578 16.6099 42.7645 16.4522 42.7242 16.3032C42.6839 16.1542 42.5987 16.0213 42.4801 15.9225ZM35.9401 35.0025C35.6629 37.6975 34.4818 40.2194 32.5891 42.1579C30.6964 44.0964 28.2034 45.3373 25.5158 45.6788C22.8281 46.0203 20.104 45.4423 17.7866 44.0388C15.4693 42.6354 13.695 40.489 12.7526 37.9489C11.8101 35.4089 11.7549 32.6247 12.596 30.0493C13.437 27.4739 15.1248 25.2589 17.3847 23.7647C19.6447 22.2705 22.3437 21.5849 25.0428 21.8197C27.7418 22.0544 30.282 23.1956 32.2501 25.0575C32.5651 25.3575 32.8651 25.68 33.1576 26.0175C34.9879 28.1788 35.9948 30.9178 36.0001 33.75C36.0001 34.17 36.0001 34.59 35.9401 35.0025ZM33.7501 15.75C33.5512 15.75 33.3604 15.829 33.2198 15.9697C33.0791 16.1103 33.0001 16.3011 33.0001 16.5V23.6925C32.8201 23.5275 32.6176 23.3775 32.4301 23.2275C32.3304 23.1362 32.2252 23.0511 32.1151 22.9725C31.7578 22.7006 31.3846 22.4501 30.9976 22.2225L30.8026 22.1175C30.4798 21.9224 30.1468 21.7447 29.8051 21.585L29.3851 21.3975C29.1076 21.2775 28.8301 21.165 28.5526 21.0675L28.0651 20.9025C27.7876 20.8125 27.5101 20.7375 27.2251 20.67L26.7301 20.55C26.4301 20.49 26.1226 20.445 25.8151 20.4L25.3801 20.34C24.9226 20.25 24.4651 20.25 24.0001 20.25C23.5351 20.25 23.0776 20.25 22.6201 20.325L22.1851 20.385C21.8776 20.43 21.5701 20.475 21.2701 20.535L20.7751 20.655C20.4901 20.7225 20.2126 20.7975 19.9351 20.8875L19.4476 21.0525C19.1701 21.15 18.8926 21.2625 18.6226 21.3825C18.4801 21.4425 18.3301 21.5025 18.1951 21.57C17.8576 21.7275 17.5276 21.9075 17.1976 22.095L17.0026 22.2075C16.6155 22.4351 16.2424 22.6856 15.8851 22.9575C15.775 23.0361 15.6698 23.1212 15.5701 23.2125C15.3751 23.3625 15.1801 23.5125 15.0001 23.6775V16.5C15.0001 16.3011 14.9211 16.1103 14.7804 15.9697C14.6398 15.829 14.449 15.75 14.2501 15.75H8.07009L24.0001 2.475L39.9301 15.75H33.7501Z" fill="white"/>
<path d="M42.4801 15.9225L37.3586 22.0683L37.3611 22.0703L42.4801 15.9225ZM24.4801 0.922498L29.6016 -5.22327L29.6001 -5.2245L24.4801 0.922498ZM23.5201 0.922498L18.4001 -5.2245L18.3986 -5.22327L23.5201 0.922498ZM5.52009 15.9225L10.6391 22.0703L10.6416 22.0683L5.52009 15.9225ZM5.29509 16.755L12.8185 14.035L12.8141 14.0228L5.29509 16.755ZM6.00009 17.25L5.99669 25.25H6.00009V17.25ZM13.5001 17.25H21.5001V9.25H13.5001V17.25ZM13.5001 25.2825L19.7248 30.3077L21.5001 28.1087V25.2825H13.5001ZM37.4326 35.1525L29.5183 33.9848L29.493 34.1563L29.4751 34.3288L37.4326 35.1525ZM37.5001 33.75L45.5001 33.75L45.5001 33.7395L37.5001 33.75ZM34.5001 25.2825H26.5001V28.1109L28.2779 30.3108L34.5001 25.2825ZM34.5001 17.25V9.25H26.5001V17.25H34.5001ZM42.0001 17.25V25.25H42.0035L42.0001 17.25ZM42.7051 16.755L35.1861 14.0228L35.1817 14.035L42.7051 16.755ZM35.9401 35.0025L28.0234 33.851L27.9993 34.017L27.9821 34.1839L35.9401 35.0025ZM32.2501 25.0575L37.7673 19.2644L37.7577 19.2552L37.7481 19.2461L32.2501 25.0575ZM33.1576 26.0175L39.2626 20.8475L39.233 20.8126L39.2031 20.7781L33.1576 26.0175ZM36.0001 33.75H44.0001V33.7425L44.0001 33.735L36.0001 33.75ZM33.0001 23.6925L27.5943 29.5897L41.0001 41.8784V23.6925H33.0001ZM32.4301 23.2275L27.0291 29.1291L27.2251 29.3085L27.4325 29.4744L32.4301 23.2275ZM32.1151 22.9725L27.2699 29.3383L27.3675 29.4127L27.4674 29.484L32.1151 22.9725ZM30.9976 22.2225L35.0529 15.3265L34.923 15.2501L34.7904 15.1787L30.9976 22.2225ZM30.8026 22.1175L26.6648 28.9643L26.8349 29.0671L27.0098 29.1613L30.8026 22.1175ZM29.8051 21.585L33.1915 14.3371L33.1292 14.308L33.0663 14.2799L29.8051 21.585ZM29.3851 21.3975L32.6463 14.0924L32.6035 14.0733L32.5604 14.0546L29.3851 21.3975ZM28.5526 21.0675L31.2045 13.5198L31.161 13.5045L31.1174 13.4898L28.5526 21.0675ZM28.0651 20.9025L30.6299 13.3248L30.5816 13.3084L30.5331 13.2927L28.0651 20.9025ZM27.2251 20.67L25.3403 28.4448L25.3608 28.4498L25.3814 28.4546L27.2251 20.67ZM26.7301 20.55L28.6149 12.7752L28.4577 12.7371L28.299 12.7054L26.7301 20.55ZM25.8151 20.4L26.9735 12.4843L26.9409 12.4795L26.9082 12.475L25.8151 20.4ZM25.3801 20.34L23.8359 28.1896L24.0604 28.2337L24.287 28.265L25.3801 20.34ZM22.6201 20.325L23.7132 28.25L23.8139 28.2361L23.9143 28.2196L22.6201 20.325ZM22.1851 20.385L21.092 12.46L21.0593 12.4645L21.0267 12.4693L22.1851 20.385ZM21.2701 20.535L19.7012 12.6904L19.5425 12.7221L19.3853 12.7602L21.2701 20.535ZM20.7751 20.655L22.6188 28.4396L22.6394 28.4348L22.6599 28.4298L20.7751 20.655ZM19.9351 20.8875L17.4671 13.2777L17.4186 13.2934L17.3703 13.3098L19.9351 20.8875ZM19.4476 21.0525L16.8828 13.4748L16.8392 13.4895L16.7957 13.5048L19.4476 21.0525ZM18.6226 21.3825L21.7271 28.7556L21.7997 28.725L21.8717 28.693L18.6226 21.3825ZM18.1951 21.57L21.5782 28.8195L21.6761 28.7738L21.7728 28.7254L18.1951 21.57ZM17.1976 22.095L13.2455 15.1393L13.2226 15.1524L13.1998 15.1655L17.1976 22.095ZM17.0026 22.2075L13.0048 15.278L12.976 15.2947L12.9473 15.3115L17.0026 22.2075ZM15.8851 22.9575L20.5328 29.469L20.6327 29.3977L20.7303 29.3233L15.8851 22.9575ZM15.5701 23.2125L20.4478 29.5535L20.7188 29.345L20.9711 29.1141L15.5701 23.2125ZM15.0001 23.6775H7.0001V41.8634L20.4059 29.5747L15.0001 23.6775ZM8.07009 15.75L2.94862 9.60423L-14.0263 23.75H8.07009V15.75ZM24.0001 2.475L29.1216 -3.67077L24.0001 -7.93867L18.8786 -3.67077L24.0001 2.475ZM39.9301 15.75V23.75H62.0265L45.0516 9.60423L39.9301 15.75ZM47.6016 9.77673L29.6016 -5.22327L19.3586 7.06827L37.3586 22.0683L47.6016 9.77673ZM29.6001 -5.2245C28.0278 -6.53408 26.0463 -7.25122 24.0001 -7.25122V8.74878C22.3046 8.74878 20.6628 8.15458 19.3601 7.0695L29.6001 -5.2245ZM24.0001 -7.25122C21.9539 -7.25122 19.9724 -6.53408 18.4001 -5.2245L28.6401 7.0695C27.3374 8.15458 25.6955 8.74878 24.0001 8.74878V-7.25122ZM18.3986 -5.22327L0.39862 9.77673L10.6416 22.0683L28.6416 7.06827L18.3986 -5.22327ZM0.4011 9.77466C-0.982581 10.9268 -1.97715 12.4777 -2.44693 14.2159L12.9989 18.3904C12.6096 19.8307 11.7856 21.1157 10.6391 22.0703L0.4011 9.77466ZM-2.44693 14.2159C-2.91671 15.9541 -2.83883 17.7949 -2.2239 19.4872L12.8141 14.0228C13.3236 15.425 13.3881 16.9502 12.9989 18.3904L-2.44693 14.2159ZM-2.22831 19.475C-1.6169 21.1661 -0.499301 22.6278 0.972398 23.6611L10.1665 10.5665C11.3859 11.4227 12.3119 12.6338 12.8185 14.035L-2.22831 19.475ZM0.972398 23.6611C2.4441 24.6944 4.19844 25.2492 5.99669 25.25L6.0035 9.25C7.49348 9.25063 8.94708 9.71032 10.1665 10.5665L0.972398 23.6611ZM6.00009 25.25H13.5001V9.25H6.00009V25.25ZM5.5001 17.25V25.2825H21.5001V17.25H5.5001ZM7.27536 20.2573C5.17392 22.8604 3.70893 25.9179 2.99692 29.1867L18.6304 32.592C18.8125 31.7558 19.1873 30.9736 19.7248 30.3077L7.27536 20.2573ZM2.99692 29.1867C2.28491 32.4555 2.34554 35.8453 3.17396 39.0865L18.6756 35.1245C18.4637 34.2953 18.4482 33.4282 18.6304 32.592L2.99692 29.1867ZM3.17396 39.0865C4.00239 42.3278 5.57576 45.331 7.76892 47.8572L19.8511 37.3681C19.2901 36.7219 18.8876 35.9536 18.6756 35.1245L3.17396 39.0865ZM7.76892 47.8572C9.96209 50.3835 12.7145 52.3631 15.8073 53.6386L21.9074 38.8471C21.1162 38.5208 20.4121 38.0144 19.8511 37.3681L7.76892 47.8572ZM15.8073 53.6386C18.9 54.9141 22.2477 55.4502 25.5841 55.2044L24.4085 39.2477C23.555 39.3105 22.6986 39.1734 21.9074 38.8471L15.8073 53.6386ZM25.5841 55.2044C28.9205 54.9586 32.1535 53.9376 35.0259 52.2226L26.8238 38.4849C26.089 38.9236 25.262 39.1848 24.4085 39.2477L25.5841 55.2044ZM35.0259 52.2226C37.8983 50.5076 40.3309 48.146 42.1302 45.3256L28.6412 36.7205C28.1809 37.442 27.5586 38.0462 26.8238 38.4849L35.0259 52.2226ZM42.1302 45.3256C43.9294 42.5052 45.0456 39.3038 45.3901 35.9762L29.4751 34.3288C29.387 35.1801 29.1015 35.999 28.6412 36.7205L42.1302 45.3256ZM45.3469 36.3202C45.5148 35.182 45.5001 34.1138 45.5001 33.75H29.5001C29.5001 33.8741 29.5 33.9564 29.4994 34.0326C29.4987 34.1048 29.4977 34.1463 29.4968 34.1691C29.496 34.1911 29.4959 34.1836 29.4983 34.1544C29.5007 34.1249 29.5063 34.0662 29.5183 33.9848L45.3469 36.3202ZM45.5001 33.7395C45.4936 28.8307 43.8076 24.0721 40.7223 20.2542L28.2779 30.3108C29.0672 31.2875 29.4985 32.5048 29.5001 33.7605L45.5001 33.7395ZM42.5001 25.2825V17.25H26.5001V25.2825H42.5001ZM34.5001 25.25H42.0001V9.25H34.5001V25.25ZM42.0035 25.25C43.8018 25.2492 45.5561 24.6944 47.0278 23.6611L37.8337 10.5665C39.0531 9.71033 40.5067 9.25063 41.9967 9.25L42.0035 25.25ZM47.0278 23.6611C48.4995 22.6278 49.6171 21.1661 50.2285 19.475L35.1817 14.035C35.6883 12.6338 36.6143 11.4227 37.8337 10.5665L47.0278 23.6611ZM50.2241 19.4872C50.839 17.7949 50.9169 15.9541 50.4471 14.2159L35.0013 18.3904C34.6121 16.9502 34.6766 15.425 35.1861 14.0228L50.2241 19.4872ZM50.4471 14.2159C49.9773 12.4777 48.9828 10.9268 47.5991 9.77466L37.3611 22.0703C36.2146 21.1157 35.3906 19.8307 35.0013 18.3904L50.4471 14.2159ZM27.9821 34.1839C27.8897 35.0822 27.496 35.9228 26.8651 36.569L38.3131 47.7468C41.4676 44.516 43.436 40.3128 43.8981 35.8211L27.9821 34.1839ZM26.8651 36.569C26.2342 37.2151 25.4032 37.6288 24.5073 37.7426L26.5242 53.615C31.0036 53.0458 35.1586 50.9776 38.3131 47.7468L26.8651 36.569ZM24.5073 37.7426C23.6114 37.8565 22.7034 37.6638 21.9309 37.196L13.6424 50.8817C17.5046 53.2209 22.0448 54.1842 26.5242 53.615L24.5073 37.7426ZM21.9309 37.196C21.1585 36.7281 20.5671 36.0127 20.2529 35.166L5.25221 40.7319C6.82297 44.9653 9.78006 48.5426 13.6424 50.8817L21.9309 37.196ZM20.2529 35.166C19.9388 34.3193 19.9204 33.3913 20.2007 32.5328L4.99121 27.5658C3.58946 31.8581 3.68145 36.4985 5.25221 40.7319L20.2529 35.166ZM20.2007 32.5328C20.4811 31.6743 21.0437 30.936 21.797 30.4379L12.9725 17.0914C9.20594 19.5818 6.39295 23.2735 4.99121 27.5658L20.2007 32.5328ZM21.797 30.4379C22.5503 29.9398 23.45 29.7113 24.3497 29.7896L25.7359 13.8498C21.2375 13.4585 16.739 14.6011 12.9725 17.0914L21.797 30.4379ZM24.3497 29.7896C25.2493 29.8678 26.0961 30.2482 26.7521 30.8689L37.7481 19.2461C34.468 16.1429 30.2344 14.241 25.7359 13.8498L24.3497 29.7896ZM26.7329 30.8506C26.8152 30.929 26.937 31.0549 27.1121 31.2569L39.2031 20.7781C38.7932 20.3051 38.315 19.786 37.7673 19.2644L26.7329 30.8506ZM27.0526 31.1875C27.6627 31.908 27.9983 32.821 28.0001 33.765L44.0001 33.735C43.9912 29.0147 42.3131 24.4496 39.2626 20.8475L27.0526 31.1875ZM28.0001 33.75C28.0001 33.804 28.0001 33.8476 28 33.8896C27.9999 33.9307 27.9997 33.9643 27.9995 33.9934C27.999 34.0526 27.9981 34.0815 27.9977 34.0922C27.9974 34.1021 27.9978 34.0837 28.001 34.0446C28.0042 34.005 28.0107 33.9385 28.0234 33.851L43.8568 36.154C44.0142 35.0722 44.0001 34.0689 44.0001 33.75H28.0001ZM33.7501 7.75C31.4295 7.75 29.2039 8.67185 27.5629 10.3128L38.8766 21.6265C37.517 22.9862 35.6729 23.75 33.7501 23.75V7.75ZM27.5629 10.3128C25.922 11.9538 25.0001 14.1794 25.0001 16.5H41.0001C41.0001 18.4228 40.2363 20.2669 38.8766 21.6265L27.5629 10.3128ZM25.0001 16.5V23.6925H41.0001V16.5H25.0001ZM38.4059 17.7953C38.116 17.5295 37.8548 17.3183 37.7007 17.1956C37.2499 16.8368 37.7253 17.2186 37.4277 16.9805L27.4325 29.4744C27.5154 29.5408 27.5934 29.6018 27.6392 29.6377C27.6947 29.6812 27.7164 29.6982 27.7352 29.7132C27.7505 29.7254 27.7422 29.719 27.7206 29.7008C27.6985 29.6823 27.6537 29.6442 27.5943 29.5897L38.4059 17.7953ZM37.8311 17.3259C37.4928 17.0163 37.136 16.7274 36.7628 16.461L27.4674 29.484C27.3143 29.3747 27.1679 29.2562 27.0291 29.1291L37.8311 17.3259ZM36.9603 16.6067C36.3505 16.1425 35.7136 15.715 35.0529 15.3265L26.9423 29.1185C27.0557 29.1852 27.1651 29.2586 27.2699 29.3383L36.9603 16.6067ZM34.7904 15.1787L34.5954 15.0737L27.0098 29.1613L27.2048 29.2663L34.7904 15.1787ZM34.9404 15.2707C34.3744 14.9287 33.7906 14.617 33.1915 14.3371L26.4187 28.8329C26.503 28.8723 26.5851 28.9161 26.6648 28.9643L34.9404 15.2707ZM33.0663 14.2799L32.6463 14.0924L26.1239 28.7026L26.5439 28.8901L33.0663 14.2799ZM32.5604 14.0546C32.1784 13.8895 31.7168 13.6998 31.2045 13.5198L25.9007 28.6152C25.9434 28.6302 26.0368 28.6655 26.2098 28.7404L32.5604 14.0546ZM31.1174 13.4898L30.6299 13.3248L25.5003 28.4802L25.9878 28.6452L31.1174 13.4898ZM30.5331 13.2927C30.0062 13.1218 29.5141 12.9908 29.0688 12.8854L25.3814 28.4546C25.5061 28.4842 25.569 28.5032 25.5971 28.5123L30.5331 13.2927ZM29.1099 12.8952L28.6149 12.7752L24.8453 28.3248L25.3403 28.4448L29.1099 12.8952ZM28.299 12.7054C27.7598 12.5975 27.2441 12.5239 26.9735 12.4843L24.6567 28.3157C25.0011 28.3661 25.1004 28.3825 25.1612 28.3946L28.299 12.7054ZM26.9082 12.475L26.4732 12.415L24.287 28.265L24.722 28.325L26.9082 12.475ZM26.9243 12.4904C25.5769 12.2254 24.3397 12.25 24.0001 12.25V28.25C24.0603 28.25 24.1061 28.25 24.1498 28.2501C24.1922 28.2503 24.2243 28.2505 24.2501 28.2508C24.3031 28.2515 24.3147 28.2523 24.3015 28.2517C24.2765 28.2504 24.0986 28.2412 23.8359 28.1896L26.9243 12.4904ZM24.0001 12.25C23.6419 12.25 22.5322 12.2326 21.3259 12.4304L23.9143 28.2196C23.8189 28.2353 23.7445 28.2436 23.6972 28.2479C23.6506 28.2522 23.6265 28.253 23.6335 28.2527C23.6416 28.2524 23.6704 28.2514 23.7339 28.2508C23.765 28.2504 23.8013 28.2502 23.8463 28.2501C23.8924 28.25 23.9403 28.25 24.0001 28.25V12.25ZM21.527 12.4L21.092 12.46L23.2782 28.31L23.7132 28.25L21.527 12.4ZM21.0267 12.4693C20.7561 12.5089 20.2404 12.5825 19.7012 12.6904L22.839 28.3796C22.8998 28.3675 22.9991 28.3511 23.3435 28.3007L21.0267 12.4693ZM19.3853 12.7602L18.8903 12.8802L22.6599 28.4298L23.1549 28.3098L19.3853 12.7602ZM18.9314 12.8704C18.4861 12.9758 17.994 13.1068 17.4671 13.2777L22.4031 28.4973C22.4312 28.4882 22.4941 28.4692 22.6188 28.4396L18.9314 12.8704ZM17.3703 13.3098L16.8828 13.4748L22.0124 28.6302L22.4999 28.4652L17.3703 13.3098ZM16.7957 13.5048C16.2811 13.6856 15.8023 13.8814 15.3735 14.072L21.8717 28.693C21.9829 28.6436 22.059 28.6144 22.0995 28.6002L16.7957 13.5048ZM15.5181 14.0094C15.4975 14.0181 15.4849 14.0233 15.4327 14.0451C15.3911 14.0625 15.3266 14.0895 15.2547 14.1203C15.117 14.1793 14.8849 14.2808 14.6174 14.4146L21.7728 28.7254C21.7021 28.7608 21.6466 28.7866 21.6129 28.8019C21.5792 28.8173 21.5582 28.8262 21.5574 28.8266C21.5565 28.827 21.5587 28.826 21.5656 28.8231C21.5726 28.8202 21.5821 28.8162 21.5967 28.8101C21.604 28.8071 21.6116 28.8039 21.6207 28.8001C21.6294 28.7964 21.6399 28.7921 21.6505 28.7877C21.6716 28.7788 21.6982 28.7677 21.7271 28.7556L15.5181 14.0094ZM14.812 14.3205C14.1855 14.6129 13.6387 14.9159 13.2455 15.1393L21.1497 29.0506C21.4165 28.8991 21.5297 28.8421 21.5782 28.8195L14.812 14.3205ZM13.1998 15.1655L13.0048 15.278L21.0004 29.137L21.1954 29.0245L13.1998 15.1655ZM12.9473 15.3115C12.2866 15.7 11.6497 16.1275 11.0399 16.5917L20.7303 29.3233C20.8351 29.2436 20.9444 29.1702 21.0579 29.1035L12.9473 15.3115ZM11.2374 16.446C10.8642 16.7125 10.5074 17.0013 10.1691 17.3109L20.9711 29.1141C20.8323 29.2411 20.6859 29.3596 20.5328 29.469L11.2374 16.446ZM10.6924 16.8715C10.5448 16.985 10.0717 17.3427 9.5943 17.7803L20.4059 29.5747C20.366 29.6113 20.335 29.6382 20.3162 29.6541C20.2976 29.6699 20.2882 29.6774 20.2919 29.6744C20.296 29.6711 20.3086 29.661 20.3356 29.6401C20.3488 29.6298 20.3642 29.6179 20.3832 29.6033C20.4026 29.5883 20.4227 29.5728 20.4478 29.5535L10.6924 16.8715ZM23.0001 23.6775V16.5H7.0001V23.6775H23.0001ZM23.0001 16.5C23.0001 14.1794 22.0782 11.9538 20.4373 10.3128L9.12357 21.6265C7.76392 20.2669 7.0001 18.4228 7.0001 16.5H23.0001ZM20.4373 10.3128C18.7963 8.67185 16.5707 7.75 14.2501 7.75V23.75C12.3273 23.75 10.4832 22.9862 9.12357 21.6265L20.4373 10.3128ZM14.2501 7.75H8.07009V23.75H14.2501V7.75ZM13.1916 21.8958L29.1216 8.62077L18.8786 -3.67077L2.94862 9.60423L13.1916 21.8958ZM18.8786 8.62077L34.8086 21.8958L45.0516 9.60423L29.1216 -3.67077L18.8786 8.62077ZM39.9301 7.75H33.7501V23.75H39.9301V7.75Z" fill="#4EBD09" mask="url(#path-3-inside-2_845_4624)"/>
</svg>
