<svg width="48" height="48" viewBox="0 0 48 48" fill="none" xmlns="http://www.w3.org/2000/svg">
<g clip-path="url(#clip0_845_4640)">
<path fill-rule="evenodd" clip-rule="evenodd" d="M6.98279 44.4825C7.23657 44.2694 7.26955 43.8909 7.05647 43.6372L5.83839 42.1865C5.83838 42.1865 5.83839 42.1865 5.83839 42.1865C5.35777 41.6141 5.03055 40.9288 4.88748 40.1952C4.74442 39.4616 4.7902 38.7036 5.02053 37.9926L7.45812 30.466C7.68921 29.7526 8.09756 29.1094 8.64495 28.5967C9.19234 28.0841 9.86085 27.7187 10.5879 27.5348L12.0676 27.1606C12.3888 27.0793 12.5834 26.753 12.5021 26.4318C12.4209 26.1105 12.0946 25.9159 11.7733 25.9972L10.2937 26.3715C9.36976 26.6051 8.52025 27.0694 7.82466 27.7209C7.12908 28.3723 6.61017 29.1896 6.31651 30.0963L3.87892 37.6228C3.87892 37.6228 3.87892 37.6228 3.87892 37.6228C3.58592 38.5274 3.52767 39.4916 3.70967 40.4249C3.89167 41.3582 4.30794 42.2299 4.91937 42.9581L6.13747 44.4088C6.35055 44.6626 6.72902 44.6956 6.98279 44.4825Z" fill="#4EBD09"/>
<path fill-rule="evenodd" clip-rule="evenodd" d="M41.0171 44.4825C41.2708 44.6956 41.6493 44.6626 41.8624 44.4088L43.0805 42.958C43.0805 42.958 43.0805 42.958 43.0805 42.958C43.6919 42.2298 44.1082 41.3581 44.2902 40.4249C44.4722 39.4916 44.4139 38.5274 44.1209 37.6228C44.1209 37.6228 44.1209 37.6228 44.1209 37.6228L41.6832 30.0963C41.3896 29.1896 40.8707 28.3723 40.1752 27.7209C39.4796 27.0694 38.6301 26.6051 37.7061 26.3714L36.2265 25.9972C35.9053 25.9159 35.579 26.1105 35.4977 26.4318C35.4164 26.753 35.611 27.0793 35.9323 27.1606L37.4119 27.5348C38.139 27.7187 38.8075 28.0841 39.3549 28.5967C39.9022 29.1094 40.3106 29.7525 40.5416 30.466L42.9793 37.9925C43.2096 38.7036 43.2554 39.4616 43.1124 40.1952C42.9693 40.9288 42.6421 41.614 42.1615 42.1864L40.9434 43.6372C40.7303 43.891 40.7633 44.2694 41.0171 44.4825Z" fill="#4EBD09"/>
<path fill-rule="evenodd" clip-rule="evenodd" d="M0.154297 45.66C0.154297 46.8956 1.15588 47.897 2.39135 47.897H45.6086C46.844 47.897 47.8456 46.8956 47.8456 45.66C47.8456 44.4245 46.844 43.423 45.6086 43.423H2.39135C1.15588 43.423 0.154297 44.4245 0.154297 45.66ZM2.39135 46.697C1.81858 46.697 1.3543 46.2328 1.3543 45.66C1.3543 45.0873 1.81858 44.623 2.39135 44.623H45.6086C46.1813 44.623 46.6456 45.0873 46.6456 45.66C46.6456 46.2328 46.1813 46.697 45.6086 46.697H2.39135Z" fill="#4EBD09"/>
<path fill-rule="evenodd" clip-rule="evenodd" d="M11.639 41.9527C11.9704 41.9527 12.239 41.6841 12.239 41.3527V35.1135C12.239 34.7821 11.9704 34.5135 11.639 34.5135C11.3076 34.5135 11.039 34.7821 11.039 35.1135V41.3527C11.039 41.6841 11.3076 41.9527 11.639 41.9527Z" fill="#4EBD09"/>
<path fill-rule="evenodd" clip-rule="evenodd" d="M36.3608 41.9527C36.6922 41.9527 36.9608 41.6841 36.9608 41.3527V27.664C36.9608 26.0996 35.6925 24.8313 34.128 24.8313H13.8718C12.3072 24.8313 11.0389 26.0996 11.0389 27.664V31.8284C11.0389 32.1598 11.3076 32.4284 11.6389 32.4284C11.9703 32.4284 12.2389 32.1598 12.2389 31.8284V27.664C12.2389 26.7623 12.9699 26.0313 13.8718 26.0313H34.128C35.0298 26.0313 35.7608 26.7623 35.7608 27.664V41.3527C35.7608 41.6841 36.0294 41.9527 36.3608 41.9527Z" fill="#4EBD09"/>
<path fill-rule="evenodd" clip-rule="evenodd" d="M15.8758 25.5783C15.957 25.8996 16.2833 26.0941 16.6046 26.0129L18.4275 25.5518C18.8911 25.4346 19.3097 25.1828 19.6305 24.8281C19.9513 24.4735 20.1601 24.0319 20.2304 23.5589C20.2304 23.5589 20.2304 23.5589 20.2304 23.5589L20.691 20.4654C20.7398 20.1377 20.5137 19.8324 20.1859 19.7836C19.8582 19.7348 19.5529 19.9609 19.5041 20.2887L19.0435 23.3822C19.008 23.621 18.9026 23.844 18.7406 24.0231C18.5786 24.2021 18.3673 24.3292 18.1332 24.3885C18.1332 24.3885 18.1332 24.3885 18.1332 24.3885L16.3103 24.8495C15.9891 24.9308 15.7945 25.2571 15.8758 25.5783Z" fill="#4EBD09"/>
<path fill-rule="evenodd" clip-rule="evenodd" d="M32.124 25.5784C32.2053 25.2572 32.0107 24.9309 31.6895 24.8496L29.8667 24.3885C29.6326 24.3293 29.4212 24.2022 29.2592 24.0231C29.0972 23.8441 28.9918 23.6211 28.9562 23.3823C28.9562 23.3823 28.9562 23.3823 28.9562 23.3823L28.4957 20.2888C28.4469 19.961 28.1417 19.7349 27.8139 19.7837C27.4861 19.8325 27.26 20.1377 27.3088 20.4655L27.7693 23.559C27.8397 24.032 28.0485 24.4736 28.3694 24.8283C28.6902 25.1829 29.1088 25.4347 29.5725 25.5519C29.5725 25.5519 29.5724 25.5519 29.5725 25.5519L31.3952 26.013C31.7165 26.0942 32.0428 25.8997 32.124 25.5784Z" fill="#4EBD09"/>
<path fill-rule="evenodd" clip-rule="evenodd" d="M9.88533 44.4571C10.1251 44.2284 10.134 43.8486 9.90525 43.6088C9.53166 43.2172 9.30315 42.6894 9.30315 42.107C9.30315 42.0868 9.30714 42.0667 9.31489 42.048C9.32265 42.0292 9.33402 42.0122 9.34835 41.9979C9.36268 41.9836 9.37969 41.9722 9.39842 41.9645C9.41714 41.9567 9.43721 41.9527 9.45747 41.9527H38.5424C38.5833 41.9527 38.6225 41.969 38.6515 41.9979C38.6804 42.0269 38.6967 42.0661 38.6967 42.107C38.6967 42.6894 38.4682 43.2173 38.0946 43.6088C37.8659 43.8486 37.8749 44.2284 38.1146 44.4571C38.3544 44.6859 38.7342 44.6769 38.9629 44.4371C39.5402 43.832 39.8967 43.0109 39.8967 42.107C39.8967 41.7478 39.754 41.4034 39.5 41.1494C39.246 40.8954 38.9016 40.7527 38.5424 40.7527H9.45762C9.4576 40.7527 9.45765 40.7527 9.45762 40.7527C9.27978 40.7527 9.10361 40.7877 8.9393 40.8558C8.77497 40.9238 8.62565 41.0236 8.49987 41.1493C8.3741 41.2751 8.27432 41.4244 8.20625 41.5887C8.13818 41.753 8.10315 41.9292 8.10315 42.107C8.10315 43.0109 8.45963 43.832 9.03703 44.4372C9.26578 44.6769 9.64557 44.6858 9.88533 44.4571Z" fill="#4EBD09"/>
<path fill-rule="evenodd" clip-rule="evenodd" d="M20.8851 33.4694C20.8851 35.1896 22.2796 36.5843 23.9999 36.5843C25.7203 36.5843 27.1148 35.1896 27.1148 33.4694C27.1148 31.7492 25.7203 30.3546 23.9999 30.3546C22.2796 30.3546 20.8851 31.7492 20.8851 33.4694ZM23.9999 35.3843C22.9424 35.3843 22.0851 34.527 22.0851 33.4694C22.0851 32.4119 22.9424 31.5546 23.9999 31.5546C25.0575 31.5546 25.9148 32.412 25.9148 33.4694C25.9148 34.5269 25.0575 35.3843 23.9999 35.3843Z" fill="#4EBD09"/>
<path fill-rule="evenodd" clip-rule="evenodd" d="M27.3611 10.1129C23.66 10.1129 20.6596 7.11244 20.6596 3.41126V3.36945C20.6596 2.23357 21.5718 1.30708 22.6915 1.30348C23.0229 1.30242 23.2906 1.03292 23.2896 0.701556C23.2885 0.370187 23.019 0.102422 22.6876 0.103488C20.8906 0.109264 19.4596 1.58858 19.4596 3.36945V3.41126C19.4596 7.77518 22.9973 11.3129 27.3611 11.3129H33.7392C34.0706 11.3129 34.3392 11.0442 34.3392 10.7129C34.3392 10.3815 34.0706 10.1129 33.7392 10.1129H27.3611Z" fill="#4EBD09"/>
<path fill-rule="evenodd" clip-rule="evenodd" d="M20.6416 6.14476C20.973 6.14476 21.2416 6.41339 21.2416 6.74476C21.2416 8.47771 19.8367 9.88257 18.1037 9.88257C17.6876 9.88257 17.3509 10.2209 17.3528 10.6369L17.3699 14.4118C17.3699 16.586 18.5074 18.3034 19.9496 19.5044C21.4047 20.716 23.0771 21.3241 23.9998 21.3491C24.9227 21.3241 26.595 20.716 28.0501 19.5044C29.4923 18.3035 30.6298 16.586 30.6298 14.4118C30.6298 14.0804 30.8984 13.8118 31.2298 13.8118C31.5612 13.8118 31.8298 14.0804 31.8298 14.4118C31.8298 17.0442 30.4446 19.0721 28.8179 20.4265C27.2109 21.7647 25.2771 22.5221 24.0127 22.5491C24.0041 22.5493 23.9956 22.5493 23.987 22.5491C22.7227 22.5221 20.7888 21.7647 19.1818 20.4265C17.5554 19.0723 16.1703 17.0449 16.1699 14.4132C16.1699 14.4127 16.1699 14.4136 16.1699 14.4132L16.1528 10.6425C16.1528 10.6424 16.1528 10.6425 16.1528 10.6425C16.1478 9.56152 17.0227 8.68257 18.1037 8.68257C19.174 8.68257 20.0416 7.81494 20.0416 6.74476C20.0416 6.41339 20.3103 6.14476 20.6416 6.14476Z" fill="#4EBD09"/>
<path fill-rule="evenodd" clip-rule="evenodd" d="M14.2603 25.3501C14.5916 25.3501 14.8603 25.0815 14.8603 24.7501V9.16787C14.8565 4.82583 18.3754 1.30339 22.7174 1.30339H25.2824C29.6245 1.30339 33.1434 4.82532 33.1396 9.16734C33.1393 9.49871 33.4077 9.76758 33.739 9.76787C34.0704 9.76816 34.3393 9.49977 34.3396 9.1684C34.344 4.1632 30.2876 0.103394 25.2824 0.103394H22.7174C17.7123 0.103394 13.6561 4.16306 13.6603 9.16813C13.6603 9.16821 13.6603 9.16804 13.6603 9.16813V24.7501C13.6603 25.0815 13.9289 25.3501 14.2603 25.3501Z" fill="#4EBD09"/>
<path fill-rule="evenodd" clip-rule="evenodd" d="M33.7353 26.0313C34.0667 26.0314 34.3354 25.7628 34.3354 25.4314L34.3363 9.33166C34.3364 9.00029 34.0678 8.73159 33.7365 8.7315C33.4051 8.73142 33.1364 8.99998 33.1363 9.33135L33.1354 25.4311C33.1354 25.7625 33.4039 26.0312 33.7353 26.0313Z" fill="#4EBD09"/>
<path fill-rule="evenodd" clip-rule="evenodd" d="M15.5976 14.3665C15.1904 14.3665 14.8602 14.0363 14.8602 13.629V12.0493C14.8602 11.6426 15.1898 11.3129 15.5966 11.3129H16.7531C17.0844 11.3129 17.3531 11.0442 17.3531 10.7129C17.3531 10.3815 17.0844 10.1129 16.7531 10.1129H15.5966C14.5271 10.1129 13.6602 10.9798 13.6602 12.0493V13.629C13.6602 14.6989 14.5275 15.5665 15.5976 15.5665H16.7935C17.1248 15.5665 17.3935 15.2979 17.3935 14.9665C17.3935 14.6351 17.1248 14.3665 16.7935 14.3665H15.5976Z" fill="#4EBD09"/>
<path fill-rule="evenodd" clip-rule="evenodd" d="M30.6064 14.9665C30.6064 15.2979 30.875 15.5665 31.2064 15.5665H32.4022C33.4724 15.5665 34.3396 14.6989 34.3396 13.629V12.0493C34.3396 10.9799 33.4728 10.1129 32.4033 10.1129H31.2393C30.9079 10.1129 30.6393 10.3815 30.6393 10.7129C30.6393 11.0442 30.9079 11.3129 31.2393 11.3129H32.4033C32.8099 11.3129 33.1396 11.6425 33.1396 12.0493V13.629C33.1396 14.0363 32.8094 14.3665 32.4022 14.3665H31.2064C30.875 14.3665 30.6064 14.6351 30.6064 14.9665Z" fill="#4EBD09"/>
</g>
<defs>
<clipPath id="clip0_845_4640">
<rect width="48" height="48" fill="white"/>
</clipPath>
</defs>
</svg>
