<svg width="48" height="48" viewBox="0 0 48 48" fill="none" xmlns="http://www.w3.org/2000/svg">
<g clip-path="url(#clip0_845_4632)">
<path fill-rule="evenodd" clip-rule="evenodd" d="M5.21411 45.7189C5.62832 45.7189 5.96411 45.3831 5.96411 44.9689V41.7772C5.96411 40.5552 6.96941 39.5508 8.1931 39.5508H9.21619C9.63041 39.5508 9.96619 39.215 9.96619 38.8008C9.96619 38.3866 9.63041 38.0508 9.21619 38.0508H8.1931C6.14268 38.0508 4.46411 39.7251 4.46411 41.7772V44.9689C4.46411 45.3831 4.7999 45.7189 5.21411 45.7189ZM17.6431 45.7189C18.0573 45.7189 18.3931 45.3831 18.3931 44.9689V41.7772C18.3931 39.7251 16.7144 38.0508 14.6641 38.0508H13.7791C13.3649 38.0508 13.0291 38.3866 13.0291 38.8008C13.0291 39.215 13.3649 39.5508 13.7791 39.5508H14.6641C15.8877 39.5508 16.8931 40.5553 16.8931 41.7772V44.9689C16.8931 45.3831 17.2289 45.7189 17.6431 45.7189Z" fill="#4EBD09"/>
<path fill-rule="evenodd" clip-rule="evenodd" d="M8.6315 47.5737C9.04571 47.5737 9.3815 47.2379 9.3815 46.8237V43.0794C9.3815 42.6652 9.04571 42.3294 8.6315 42.3294C8.21729 42.3294 7.8815 42.6652 7.8815 43.0794V46.8237C7.8815 47.2379 8.21729 47.5737 8.6315 47.5737ZM14.2255 47.5737C14.6398 47.5737 14.9755 47.2379 14.9755 46.8237V43.0794C14.9755 42.6652 14.6398 42.3294 14.2255 42.3294C13.8113 42.3294 13.4755 42.6652 13.4755 43.0794V46.8237C13.4755 47.2379 13.8113 47.5737 14.2255 47.5737Z" fill="#4EBD09"/>
<path fill-rule="evenodd" clip-rule="evenodd" d="M11.4272 46.5469C6.63564 46.5469 2.72461 42.636 2.72461 37.8415C2.72461 33.047 6.63565 29.1361 11.4272 29.1361C16.2217 29.1361 20.1325 33.0471 20.1325 37.8415C20.1325 42.6359 16.2217 46.5469 11.4272 46.5469ZM1.22461 37.8415C1.22461 43.4642 5.80693 48.0469 11.4272 48.0469C17.0502 48.0469 21.6325 43.4643 21.6325 37.8415C21.6325 32.2187 17.0502 27.6361 11.4272 27.6361C5.80692 27.6361 1.22461 32.2188 1.22461 37.8415Z" fill="#4EBD09"/>
<path fill-rule="evenodd" clip-rule="evenodd" d="M30.3564 18.0331C30.7706 18.0331 31.1064 17.6973 31.1064 17.2831V14.0941C31.1064 12.8693 32.1121 11.8652 33.3354 11.8652H34.2814C34.6956 11.8652 35.0314 11.5295 35.0314 11.1152C35.0314 10.701 34.6956 10.3652 34.2814 10.3652H33.3354C31.2846 10.3652 29.6064 12.04 29.6064 14.0941V17.2831C29.6064 17.6973 29.9422 18.0331 30.3564 18.0331ZM42.7854 18.0331C43.1996 18.0331 43.5354 17.6973 43.5354 17.2831V14.0941C43.5354 12.04 41.8572 10.3652 39.8064 10.3652H38.8737C38.4595 10.3652 38.1237 10.701 38.1237 11.1152C38.1237 11.5295 38.4595 11.8652 38.8737 11.8652H39.8064C41.0297 11.8652 42.0354 12.8693 42.0354 14.0941V17.2831C42.0354 17.6973 42.3712 18.0331 42.7854 18.0331Z" fill="#4EBD09"/>
<path fill-rule="evenodd" clip-rule="evenodd" d="M33.7738 19.8882C34.1881 19.8882 34.5238 19.5524 34.5238 19.1382V15.3937C34.5238 14.9795 34.1881 14.6437 33.7738 14.6437C33.3596 14.6437 33.0238 14.9795 33.0238 15.3937V19.1382C33.0238 19.5524 33.3596 19.8882 33.7738 19.8882ZM39.3679 19.8882C39.7821 19.8882 40.1179 19.5524 40.1179 19.1382V15.3937C40.1179 14.9795 39.7821 14.6437 39.3679 14.6437C38.9537 14.6437 38.6179 14.9795 38.6179 15.3937V19.1382C38.6179 19.5524 38.9537 19.8882 39.3679 19.8882Z" fill="#4EBD09"/>
<path fill-rule="evenodd" clip-rule="evenodd" d="M36.5722 18.8611C31.7776 18.8611 27.8669 14.9503 27.8669 10.156C27.8669 5.36422 31.7775 1.45312 36.5722 1.45312C41.3639 1.45312 45.2748 5.36409 45.2748 10.156C45.2748 14.9505 41.3638 18.8611 36.5722 18.8611ZM26.3669 10.156C26.3669 15.7788 30.9492 20.3611 36.5722 20.3611C42.1924 20.3611 46.7748 15.7786 46.7748 10.156C46.7748 4.5357 42.1923 -0.046875 36.5722 -0.046875C30.9493 -0.046875 26.3669 4.53556 26.3669 10.156Z" fill="#4EBD09"/>
<path fill-rule="evenodd" clip-rule="evenodd" d="M20.4011 41.0512C21.5844 41.3004 22.7904 41.426 23.9997 41.426C30.5437 41.426 36.2415 37.8172 39.2226 32.4877C39.4248 32.1262 39.2957 31.6692 38.9342 31.467C38.5727 31.2648 38.1157 31.3939 37.9135 31.7554C35.1864 36.6308 29.978 39.926 23.9997 39.926C22.8943 39.926 21.7919 39.8112 20.7102 39.5834C20.3049 39.4981 19.9071 39.7575 19.8217 40.1628C19.7364 40.5681 19.9958 40.9659 20.4011 41.0512ZM8.30858 29.7094C8.70381 29.5854 8.92371 29.1646 8.79975 28.7693C8.3279 27.2649 8.07147 25.6609 8.07147 23.9978C8.07147 22.1389 8.3914 20.3527 8.97729 18.6963C9.11542 18.3058 8.91082 17.8772 8.52032 17.7391C8.12982 17.601 7.70128 17.8056 7.56315 18.1961C6.92129 20.0107 6.57147 21.966 6.57147 23.9978C6.57147 25.8157 6.85186 27.571 7.3685 29.2182C7.49246 29.6135 7.91335 29.8334 8.30858 29.7094ZM9.23203 16.2068C9.58908 16.4168 10.0487 16.2976 10.2587 15.9405C13.0289 11.2303 18.1457 8.07204 23.9997 8.07204C25.1305 8.07204 26.2294 8.1889 27.2894 8.4121C27.6947 8.49745 28.0925 8.23805 28.1778 7.83273C28.2632 7.4274 28.0038 7.02963 27.5984 6.94429C26.4368 6.69967 25.2343 6.57204 23.9997 6.57204C17.5922 6.57204 11.9942 10.0308 8.96576 15.1801C8.75578 15.5371 8.87499 15.9968 9.23203 16.2068Z" fill="#4EBD09"/>
<path fill-rule="evenodd" clip-rule="evenodd" d="M23.9997 41.426C24.4139 41.426 24.7497 41.0913 24.7497 40.6771V7.32306C24.7497 6.90884 24.4139 6.57204 23.9997 6.57204C23.5855 6.57204 23.2497 6.90884 23.2497 7.32306V40.6771C23.2497 41.0913 23.5855 41.426 23.9997 41.426Z" fill="#4EBD09"/>
<path fill-rule="evenodd" clip-rule="evenodd" d="M6.57147 23.9978C6.57147 24.412 6.90726 24.7487 7.32147 24.7487H40.6781C41.0923 24.7487 41.4281 24.4129 41.4281 23.9987C41.4281 23.5845 41.0923 23.2487 40.6781 23.2487H7.32147C6.90726 23.2487 6.57147 23.5836 6.57147 23.9978Z" fill="#4EBD09"/>
<path fill-rule="evenodd" clip-rule="evenodd" d="M20.2778 39.9776C21.3811 40.8872 22.6394 41.426 23.9997 41.426C26.7639 41.426 29.0693 39.2321 30.6392 36.1307C32.2304 32.9871 33.1925 28.6967 33.1925 23.9989C33.1925 21.9972 33.0186 20.0711 32.6941 18.2766C32.6204 17.869 32.2302 17.5983 31.8226 17.6721C31.415 17.7458 31.1443 18.1359 31.2181 18.5435C31.526 20.2465 31.6925 22.0831 31.6925 23.9989C31.6925 28.5118 30.7651 32.5605 29.3008 35.4533C27.8152 38.3884 25.8994 39.926 23.9997 39.926C23.0587 39.926 22.127 39.5581 21.232 38.8202C20.9124 38.5567 20.4397 38.6022 20.1762 38.9218C19.9127 39.2414 19.9582 39.7141 20.2778 39.9776ZM16.1769 30.3254C16.5844 30.2516 16.855 29.8613 16.7812 29.4537C16.4733 27.7538 16.3069 25.9173 16.3069 23.9989C16.3069 19.4859 17.2343 15.4378 18.6985 12.5457C20.184 9.6114 22.0999 8.07204 23.9997 8.07204C24.941 8.07204 25.8727 8.44223 26.7682 9.17821C27.0882 9.44122 27.5608 9.39502 27.8238 9.07503C28.0868 8.75503 28.0406 8.28241 27.7206 8.0194C26.6177 7.11288 25.3598 6.57204 23.9997 6.57204C21.2357 6.57204 18.9301 8.76731 17.3602 11.8682C15.769 15.0112 14.8069 19.301 14.8069 23.9989C14.8069 26.003 14.9806 27.9291 15.3052 29.7211C15.379 30.1286 15.7693 30.3992 16.1769 30.3254Z" fill="#4EBD09"/>
<path fill-rule="evenodd" clip-rule="evenodd" d="M23.9997 15.0158C19.3294 15.0158 15.3159 13.5017 13.0825 11.3274C12.7857 11.0385 12.3108 11.0448 12.0219 11.3416C11.733 11.6384 11.7393 12.1133 12.0361 12.4022C14.6233 14.9208 19.0551 16.5158 23.9997 16.5158C25.6744 16.5158 27.2817 16.3346 28.7776 15.998C29.1818 15.9071 29.4356 15.5058 29.3447 15.1017C29.2538 14.6976 28.8525 14.4437 28.4483 14.5346C27.0637 14.8462 25.567 15.0158 23.9997 15.0158Z" fill="#4EBD09"/>
<path fill-rule="evenodd" clip-rule="evenodd" d="M35.9775 36.6559C36.2664 36.3591 36.26 35.8843 35.9632 35.5953C33.3761 33.0767 28.9442 31.4815 23.9997 31.4815C22.3743 31.4815 20.6757 31.6847 19.2265 32.001C18.8218 32.0893 18.5653 32.489 18.6536 32.8937C18.7419 33.2984 19.1416 33.5548 19.5463 33.4665C20.898 33.1715 22.4892 32.9815 23.9997 32.9815C28.6698 32.9815 32.6835 34.4958 34.9169 36.6701C35.2137 36.9591 35.6885 36.9527 35.9775 36.6559Z" fill="#4EBD09"/>
<path fill-rule="evenodd" clip-rule="evenodd" d="M32.8059 9.07173C32.8059 11.1445 34.4975 12.8353 36.5722 12.8353C38.6438 12.8353 40.3384 11.1449 40.3384 9.07173V5.83755C40.3384 4.49511 39.2418 3.40006 37.8983 3.40006H35.2434C33.9018 3.40006 32.8059 4.49584 32.8059 5.83755V9.07173ZM36.5722 11.3353C35.325 11.3353 34.3059 10.3152 34.3059 9.07173V5.83755C34.3059 5.32433 34.7302 4.90006 35.2434 4.90006H37.8983C38.4149 4.90006 38.8384 5.32506 38.8384 5.83755V9.07173C38.8384 10.3148 37.8171 11.3353 36.5722 11.3353Z" fill="#4EBD09"/>
<path fill-rule="evenodd" clip-rule="evenodd" d="M7.6636 36.7547C7.6636 38.8261 9.35382 40.521 11.4271 40.521C13.5027 40.521 15.1934 38.8266 15.1934 36.7547V31.8357C15.1934 31.4215 14.8576 31.0857 14.4434 31.0857H10.1011C8.75682 31.0857 7.6636 32.1788 7.6636 33.5232V36.7547ZM11.4271 39.021C10.1841 39.021 9.1636 37.9995 9.1636 36.7547V33.5232C9.1636 33.0072 9.58519 32.5857 10.1011 32.5857H13.6934V36.7547C13.6934 37.999 12.6734 39.021 11.4271 39.021Z" fill="#4EBD09"/>
<path fill-rule="evenodd" clip-rule="evenodd" d="M39.8433 8.15855C39.8437 8.15843 39.844 8.15832 39.5905 7.45901L39.8433 8.15855C40.2328 8.01741 40.4347 7.58708 40.2935 7.19765C40.1528 6.80937 39.7248 6.60813 39.3363 6.74684C39.3352 6.74725 39.334 6.74766 39.3329 6.74808L39.5884 7.4532C39.3329 6.74808 39.3326 6.74818 39.3329 6.74808C39.334 6.74766 39.3352 6.74725 39.3363 6.74684L39.328 6.74963C39.3186 6.75275 39.3016 6.75818 39.2779 6.76517C39.2302 6.7792 39.1561 6.79927 39.0609 6.81953C38.869 6.8604 38.6012 6.89997 38.2993 6.89633C37.6991 6.88909 37.0091 6.71578 36.4579 6.08167C36.3244 5.92807 36.1341 5.83533 35.9309 5.82475C35.73 5.81429 35.5335 5.88492 35.3854 6.02059L35.3706 6.03306C35.3542 6.04653 35.3255 6.06906 35.2859 6.09665C35.2057 6.15251 35.0866 6.22486 34.9388 6.28572C34.6477 6.40552 34.264 6.47551 33.8177 6.30928C33.4295 6.16469 32.9977 6.36215 32.8531 6.75031C32.7085 7.13846 32.9059 7.57034 33.2941 7.71493C34.182 8.04567 34.9663 7.89647 35.5096 7.67284C35.6175 7.62845 35.7166 7.58093 35.8062 7.53322C36.6236 8.20159 37.5482 8.38739 38.2812 8.39622C38.7201 8.40151 39.1014 8.34454 39.3733 8.28664C39.5101 8.25751 39.6216 8.22764 39.7016 8.20407C39.7417 8.19227 39.7741 8.18199 39.798 8.17409L39.8275 8.16412L39.8374 8.16066L39.8411 8.15934L39.8433 8.15855Z" fill="#4EBD09"/>
<path fill-rule="evenodd" clip-rule="evenodd" d="M7.6636 34.4958C7.6636 34.91 7.99939 35.2458 8.4136 35.2458H14.4434C14.8576 35.2458 15.1934 34.91 15.1934 34.4958C15.1934 34.0816 14.8576 33.7458 14.4434 33.7458H8.4136C7.99939 33.7458 7.6636 34.0816 7.6636 34.4958Z" fill="#4EBD09"/>
<path fill-rule="evenodd" clip-rule="evenodd" d="M39.7118 18.0368C39.3167 18.1612 39.0973 18.5824 39.2218 18.9775C39.6956 20.4813 39.954 22.085 39.9562 23.7481C39.9585 25.607 39.6409 27.3936 39.0571 29.0507C38.9194 29.4414 39.1246 29.8697 39.5153 30.0073C39.9059 30.145 40.3342 29.9398 40.4719 29.5491C41.1114 27.7337 41.4587 25.778 41.4562 23.7462C41.4538 21.9282 41.1712 20.1733 40.6525 18.5268C40.528 18.1317 40.1069 17.9123 39.7118 18.0368Z" fill="#4EBD09"/>
</g>
<defs>
<clipPath id="clip0_845_4632">
<rect width="48" height="48" fill="white"/>
</clipPath>
</defs>
</svg>
