<svg width="48" height="48" viewBox="0 0 48 48" fill="none" xmlns="http://www.w3.org/2000/svg">
<path d="M39.6846 35.1377L44.6119 38.1084C45.1618 38.4394 45.6166 38.9065 45.9322 39.4642C46.2477 40.022 46.4133 40.6515 46.4128 41.2918V45.7773C46.4128 45.9461 46.3455 46.1079 46.2258 46.2273C46.1061 46.3466 45.9437 46.4136 45.7743 46.4136H25.9627C25.7934 46.4136 25.631 46.3466 25.5112 46.2273C25.3915 46.1079 25.3242 45.9461 25.3242 45.7773V41.2918C25.3241 40.6516 25.4898 40.0222 25.8053 39.4645C26.1208 38.9068 26.5754 38.4397 27.1251 38.1084L32.0542 35.1377" stroke="#4EBD09" stroke-miterlimit="10" stroke-linecap="round"/>
<path d="M35.8717 36.3896C34.1889 36.3896 32.5751 35.7233 31.3852 34.5374C30.1953 33.3515 29.5269 31.7431 29.5269 30.066V25.4698C29.5269 21.3406 31.3746 20.5175 31.9905 20.3584C32.0456 20.3438 32.0969 20.3178 32.1412 20.282C32.1854 20.2462 32.2216 20.2016 32.2473 20.1509C32.4208 19.8258 33.1148 19.1462 35.8057 19.1462C39.3416 19.1462 42.2251 21.0622 42.2251 25.4698V30.066C42.2251 30.8971 42.0607 31.7201 41.7413 32.4879C41.4219 33.2557 40.9538 33.9532 40.3637 34.5405C39.7736 35.1278 39.0732 35.5934 38.3024 35.9107C37.5316 36.228 36.7056 36.3907 35.8717 36.3896V36.3896Z" stroke="#4EBD09" stroke-miterlimit="10" stroke-linecap="round"/>
<path d="M42.2167 27.5744H40.8929C40.2338 27.5743 39.597 27.3359 39.1007 26.9035L37.6589 25.6447C36.9547 25.0308 36.051 24.6923 35.1155 24.6919H33.3579C33.1462 24.6916 32.9395 24.7557 32.7653 24.8756C32.5911 24.9955 32.4577 25.1654 32.3829 25.3628L31.9613 26.5127C31.8479 26.8218 31.642 27.0888 31.3714 27.2774C31.1008 27.4661 30.7786 27.5673 30.4484 27.5675H29.5254" stroke="#4EBD09" stroke-miterlimit="10" stroke-linecap="round"/>
<path d="M42.4867 36.8271L38.9525 38.9384C38.8518 38.9995 38.7334 39.0248 38.6164 39.01C38.4995 38.9952 38.3911 38.9414 38.3088 38.8572L35.8799 36.3896" stroke="#4EBD09" stroke-miterlimit="10" stroke-linecap="round"/>
<path d="M37.7135 38.2551L37.2173 40.2886C37.1911 40.3941 37.2002 40.5052 37.2433 40.6051L38.6972 43.9891C38.7326 44.0718 38.7487 44.1616 38.7442 44.2514C38.7397 44.3413 38.7147 44.429 38.6712 44.5078L37.6059 46.4099" stroke="#4EBD09" stroke-miterlimit="10" stroke-linecap="round"/>
<path d="M29.2588 36.8271L32.7929 38.9384C32.8936 38.9995 33.0121 39.0248 33.129 39.01C33.246 38.9952 33.3544 38.9414 33.4366 38.8572L35.8656 36.3896" stroke="#4EBD09" stroke-miterlimit="10" stroke-linecap="round"/>
<path d="M34.0374 38.2551L34.5336 40.2886C34.5598 40.3941 34.5507 40.5052 34.5076 40.6051L33.052 43.9891C33.0164 44.0719 33.0004 44.1617 33.0052 44.2517C33.01 44.3416 33.0355 44.4292 33.0797 44.5078L34.1433 46.4099" stroke="#4EBD09" stroke-miterlimit="10" stroke-linecap="round"/>
<path d="M37.1578 40.4392H34.5762" stroke="#4EBD09" stroke-miterlimit="10" stroke-linecap="round"/>
<path d="M15.9416 18.9129L20.8689 21.8819C21.4181 22.2134 21.8721 22.6807 22.187 23.2384C22.5019 23.7961 22.667 24.4253 22.6664 25.0653V29.5507C22.6664 29.6343 22.6498 29.717 22.6178 29.7943C22.5857 29.8715 22.5386 29.9416 22.4793 30.0007C22.4201 30.0598 22.3497 30.1067 22.2722 30.1386C22.1948 30.1706 22.1117 30.1871 22.0279 30.1871H2.2249C2.14105 30.1871 2.05803 30.1706 1.98056 30.1386C1.9031 30.1067 1.83272 30.0598 1.77343 30.0007C1.71414 29.9416 1.66711 29.8715 1.63503 29.7943C1.60294 29.717 1.58643 29.6343 1.58643 29.5507V25.0653C1.58666 24.4251 1.75252 23.7958 2.06798 23.2382C2.38345 22.6805 2.83786 22.2134 3.38733 21.8819L8.31639 18.9111" stroke="#4EBD09" stroke-miterlimit="10" stroke-linecap="round"/>
<path d="M18.4728 10.3862V13.8446C18.4728 15.5217 17.8043 17.1301 16.6145 18.316C15.4246 19.5019 13.8107 20.1682 12.128 20.1682V20.1682C11.2944 20.1682 10.4689 20.0044 9.69875 19.6863C8.92862 19.3682 8.22895 18.9019 7.63971 18.3142C7.05047 17.7264 6.58323 17.0287 6.26468 16.2609C5.94613 15.4931 5.78252 14.6703 5.78321 13.8394V10.3914" stroke="#4EBD09" stroke-miterlimit="10" stroke-linecap="round"/>
<path d="M18.5988 20.521C16.7354 21.9211 14.4653 22.6784 12.1317 22.6784C9.79807 22.6784 7.52794 21.9211 5.66455 20.521V20.521" stroke="#4EBD09" stroke-miterlimit="10" stroke-linecap="round"/>
<path d="M2.61035 10.3481H21.6465" stroke="#4EBD09" stroke-miterlimit="10" stroke-linecap="round"/>
<path d="M11.3133 1.58643H12.9511C14.5736 1.58643 16.1296 2.22879 17.2769 3.37221C18.4241 4.51564 19.0686 6.06645 19.0686 7.68349V10.3464H5.1958V7.68349C5.1958 6.06645 5.84032 4.51564 6.98758 3.37221C8.13484 2.22879 9.69085 1.58643 11.3133 1.58643V1.58643Z" stroke="#4EBD09" stroke-miterlimit="10" stroke-linecap="round"/>
<path d="M12.1289 1.58643V7.51576" stroke="#4EBD09" stroke-miterlimit="10" stroke-linecap="round"/>
<path d="M27.1479 8.88721H35.3735C35.5038 8.88721 35.6289 8.93871 35.7213 9.03043C35.8136 9.12215 35.8657 9.24662 35.8662 9.37656V16.0615" stroke="#4EBD09" stroke-miterlimit="10" stroke-linecap="round"/>
<path d="M37.5596 14.5103L36.0259 16.0337C35.9818 16.0771 35.9222 16.1014 35.8602 16.1014C35.7982 16.1014 35.7387 16.0771 35.6945 16.0337L34.166 14.5103" stroke="#4EBD09" stroke-miterlimit="10" stroke-linecap="round"/>
<path d="M20.8471 42.7459H12.6216C12.491 42.7459 12.3656 42.6942 12.2732 42.6021C12.1808 42.51 12.1289 42.3851 12.1289 42.2548V35.6096" stroke="#4EBD09" stroke-miterlimit="10" stroke-linecap="round"/>
<path d="M10.4385 37.1541L11.967 35.6324C11.9887 35.6107 12.0146 35.5935 12.043 35.5818C12.0714 35.57 12.1019 35.564 12.1327 35.564C12.1635 35.564 12.1939 35.57 12.2224 35.5818C12.2508 35.5935 12.2766 35.6107 12.2984 35.6324L13.8269 37.1541" stroke="#4EBD09" stroke-miterlimit="10" stroke-linecap="round"/>
</svg>
